<svg width="413" height="126" viewBox="0 0 413 126" fill="none" xmlns="http://www.w3.org/2000/svg">
<path d="M7.71963 64.0282L15.6703 64.5214L23.6196 65.0014L31.569 65.4949L39.5463 65.9881L47.5316 66.4282L55.4916 66.868L63.453 67.3082L71.4356 67.748L79.4263 68.1615L87.3956 68.5615L95.365 68.9615L103.35 69.3615L111.344 69.7347L119.318 70.1082L127.293 70.4813L135.285 70.8548L143.282 71.2014L151.261 71.548L159.24 71.8949L167.234 72.2415L175.23 72.5615L183.212 72.8813L191.194 73.2014L199.192 73.5214L207.188 73.8147L215.173 74.1082L223.154 74.4014L231.14 74.6813L239.122 74.9748L247.106 75.2681L255.089 75.5615L263.084 75.8415L271.074 76.1082L279.052 76.3748L287.03 76.6415L295.009 76.9082L302.989 77.1615L310.966 77.4147L318.945 77.6813L326.922 77.9347L334.888 78.2014L342.853 78.4548L350.818 78.7082L358.784 78.9748L366.75 79.2282L372.625 79.4147L364.744 83.0415L356.492 86.8014L348.086 90.5615L339.62 94.2147L331.184 97.6813L322.88 100.855L314.716 103.641L310.86 104.828L307.036 105.895L303.318 106.815L299.722 107.601L296.288 108.215L292.817 108.668C288.317 109.268 285.149 113.388 285.742 117.895C286.336 122.402 290.466 125.561 294.966 124.975L298.802 124.468L302.902 123.735L307.048 122.841L311.245 121.801L315.502 120.615L319.869 119.268L328.464 116.348L337.24 113.015L346.013 109.441L354.721 105.708L363.288 101.895L371.61 98.1347L379.638 94.5082L387.248 91.1214L394.402 88.0548L394.745 87.9082L395.712 87.5214L397.048 86.9615L398.637 86.2681L400.422 85.4415L402.452 84.4282L406.221 82.2813L409.046 80.0415L411.808 75.9214L411.816 75.8949L411.83 75.8548L411.853 75.7748L411.884 75.6813L411.921 75.548L411.966 75.4014L412.018 75.2282L412.133 74.8548L412.284 74.2415L412.414 73.548L412.506 72.7748L412.541 71.8813L412.476 70.8415L412.258 69.6548L411.82 68.3347L411.47 67.6014L411.428 67.5214L411.392 67.4415L411.362 67.3881L411.338 67.348L411.32 67.3082L411.308 67.2813L411.302 67.2681L410.39 65.8813L409.361 64.6282L407.865 63.1748L406.293 61.8813L404.576 60.6282L402.728 59.3881L400.741 58.1615L398.584 56.8949L396.274 55.6147L393.822 54.3082L391.216 52.9615L388.47 51.5881L385.602 50.1881L382.604 48.7615L379.489 47.2949L376.276 45.8147L372.962 44.3082L369.548 42.7748L362.554 39.6949L355.305 36.548L347.908 33.3615L340.454 30.1881L333.014 27.0147L325.742 23.9082L318.5 20.8147L311.805 17.8813L305.114 14.948L299.038 12.2014L293.505 9.61467L288.58 7.1881L286.442 6.08134L284.474 5.02821L282.729 4.05477L281.209 3.148L279.98 2.36154L278.866 1.57482C274.944 -1.17184 269.528 -0.238457 266.769 3.69488C264.012 7.61488 264.956 13.0281 268.88 15.7881L270.337 16.8014L272.129 17.948L274.066 19.0949L276.148 20.2681L278.397 21.4681L280.845 22.7082L286.017 25.2548L291.805 27.948L298.085 30.7881L304.868 33.748L311.645 36.7082L318.965 39.8147L326.256 42.9214L333.717 46.0681L341.165 49.2147L348.528 52.3347L355.714 55.4147L362.649 58.4415L365.98 59.9082L369.221 61.3615L370.641 62.0014L367.305 61.8949L359.34 61.6415L351.372 61.4014L343.405 61.148L335.44 60.8949L327.473 60.6415L319.494 60.3881L311.514 60.148L303.536 59.8949L295.556 59.6548L287.577 59.4014L279.598 59.1615L271.62 58.9214L263.652 58.6813L255.678 58.4282L247.694 58.1615L239.71 57.8949L231.725 57.6415L223.741 57.3881L215.757 57.1214L207.772 56.868L199.804 56.6147L191.832 56.3347L183.849 56.0415L175.865 55.7615L167.896 55.4681L159.928 55.1615L151.949 54.8548L143.968 54.5347L136.002 54.2282L128.044 53.8813L120.069 53.5347L112.093 53.1881L104.136 52.8282L96.1836 52.4415L88.2143 52.0681L80.2436 51.6681L72.2956 51.2813L64.3583 50.8548L56.397 50.4282L48.4356 49.9881L40.501 49.548L32.5756 49.0681L24.625 48.5881L16.6743 48.1082L8.72363 47.6147C4.19163 47.3347 0.292957 50.7881 0.0156235 55.3214C-0.26171 59.8548 3.18629 63.7482 7.71963 64.0282Z" fill="#100F0D"/>
</svg>
