<svg width="358" height="472" viewBox="0 0 358 472" fill="none" xmlns="http://www.w3.org/2000/svg">
<path d="M97.992 279.493L98.02 279.547L98.0187 279.573L97.992 279.493ZM89.812 5.68005L82.056 5.85349H81.7253L81.056 5.84009L80.212 5.82681L79.2293 5.81339L78.104 5.78683L76.844 5.77341L74 5.72015L70.724 5.68005L67.0853 5.6535L63.1654 5.64008L58.992 5.6535L54.6333 5.70676L50.1493 5.81339L45.5827 5.97342L40.9294 6.2001L31.944 6.84009L23.372 7.89346L15.936 9.40012L12.184 10.5067L8.82799 11.8801L5.67467 13.7467L2.66666 16.5734L0.40533 21.0668L0.186646 25.8801L1.09335 29.5601L2.372 32.7734L3.96269 35.8134L5.79999 38.7334L7.88931 41.6001L10.176 44.3868L12.6253 47.1201L15.244 49.8134L17.988 52.4535L20.832 55.0401L23.7733 57.6001L26.8187 60.1201L32.8346 64.8668L38.872 69.3467L44.6093 73.4134L47.3654 75.3067L49.9493 77.0668L52.3573 78.6935L54.58 80.1734L56.5693 81.5067L58.3346 82.6801L65.5 87.4268L72.704 92.1868L79.9627 96.8535L87.2133 101.507L94.5107 106.08L101.799 110.64L109.12 115.147L116.441 119.64L123.791 124.08L131.135 128.507L138.5 132.907L145.863 137.293L153.243 141.653L160.608 146L167.973 150.36L175.339 154.707L182.708 159.053L190.079 163.413L197.447 167.76L204.788 172.093L212.099 176.493L219.441 180.92L226.783 185.333L234.148 189.773L236.005 190.84L238.207 192.013L240.675 193.253L243.377 194.573L246.329 195.987L249.487 197.493L252.803 199.067L256.26 200.707L259.815 202.413L263.427 204.187L267.06 205.987L270.627 207.813L277.697 211.6L284.139 215.36L289.769 219.107L291.791 220.64L291.305 220.76L288.723 221.387L285.964 222L283.061 222.613L280.088 223.2L273.933 224.333L267.929 225.373L262.397 226.293L259.883 226.707L257.591 227.093L255.563 227.44L253.785 227.76L252.269 228.067L251.079 228.347L249.663 228.707L248.079 229.08L246.169 229.493L243.997 229.947L241.559 230.44L238.872 230.947L235.973 231.493L232.861 232.067L229.545 232.667L226.06 233.293L222.403 233.933L218.588 234.613L210.568 236.013L202.072 237.52L193.215 239.093L184.123 240.733L174.865 242.44L165.551 244.213L156.389 246.04L147.184 247.893L138.507 249.813L129.785 251.747L122.043 253.747L114.372 255.72L110.719 256.773L107.336 257.8L104.135 258.84L101.1 259.893L98.244 260.973L95.588 262.08L93.1013 263.227L90.7693 264.453L88.62 265.773L86.584 267.267L84.62 269.133L82.9907 271.32L81.876 273.547L81.1773 275.733L80.8226 277.893L80.7493 280L80.9306 282.067L81.4093 284.347L82.5093 287.56L84.192 290.893L86.2013 294L88.472 297L91.0107 299.947L93.7506 302.827L96.648 305.653L99.7013 308.453L102.909 311.24L109.277 316.453L115.676 321.36L121.637 325.76L124.405 327.76L126.917 329.573L129.14 331.173L131.052 332.56L132.548 333.68L133.587 334.507L140.217 339.907L146.904 345.36L153.656 350.733L160.397 356.107L167.189 361.413L173.969 366.72L180.779 371.987L187.583 377.24L194.405 382.48L201.219 387.72L208.031 392.947L214.831 398.16L221.605 403.4L228.393 408.653L235.183 413.907L241.92 419.12L248.572 424.44L255.277 429.787L261.98 435.133L268.592 440.413L275.052 445.867L281.601 451.387L283.223 452.747L278.263 452.293L273.033 451.827L267.611 451.32L262.076 450.813L250.927 449.773L240.135 448.773L230.316 447.84L225.903 447.413L221.933 447.027L218.495 446.693L215.601 446.4L213.384 446.173L211.903 446.013C207.136 445.48 202.844 448.92 202.319 453.68C201.792 458.453 205.231 462.747 209.997 463.267L211.556 463.44L213.856 463.68L216.796 463.96L220.268 464.293L224.26 464.68L228.699 465.093L238.541 466L249.36 466.973L260.533 467.96L266.091 468.427L271.533 468.893L276.785 469.333L281.803 469.733L286.496 470.12L290.783 470.453L292.779 470.6L294.645 470.747L296.379 470.867L297.983 470.987L299.441 471.08L300.743 471.173L301.899 471.24L302.901 471.293L303.751 471.333L304.513 471.36L305.437 471.347L310.951 469.04L313.419 466.413L315.499 462.667L316.616 458.88L317.097 455.12L317.087 451.293L316.664 447.24L315.159 439.787L312.751 431.813L309.824 423.88L308.189 419.827L306.532 415.933L304.857 412.16L303.193 408.493L301.568 405.013L300.017 401.733L298.563 398.693L297.241 395.947L296.093 393.52L295.141 391.48L294.447 389.92L293.984 388.747C292.315 384.52 287.539 382.453 283.316 384.12C279.095 385.787 277.025 390.573 278.695 394.787L279.299 396.32L280.171 398.293L281.211 400.533L282.393 403.027L283.717 405.787L285.152 408.8L286.661 412L288.224 415.36L289.809 418.88L291.387 422.48L292.923 426.133L294.363 429.733L297.035 437.053L298.857 443.227L292.792 438.107L286.24 432.587L279.599 426.987L272.803 421.573L266.096 416.227L259.391 410.88L252.636 405.48L245.795 400.2L239.004 394.947L232.213 389.693L225.409 384.427L218.58 379.187L211.768 373.973L204.955 368.747L198.153 363.52L191.372 358.28L184.596 353.04L177.853 347.773L171.117 342.507L164.433 337.2L157.759 331.88L151.149 326.493L144.484 321.067L143.061 319.947L141.309 318.64L139.285 317.16L137.025 315.533L134.528 313.733L131.859 311.813L126.077 307.547L120.024 302.907L113.987 297.96L111.2 295.547L108.521 293.093L106.045 290.68L103.808 288.333L101.896 286.12L100.335 284.053L99.1493 282.24L98.42 280.813L98.2027 280.147H98.2066L99.264 279.493L100.699 278.747L102.507 277.907L104.609 277.04L106.992 276.133L109.648 275.213L112.528 274.267L115.628 273.32L118.831 272.387L126.349 270.453L133.796 268.52L142.249 266.64L150.745 264.747L159.779 262.933L168.856 261.093L178.043 259.347L187.219 257.64L196.255 256L205.073 254.427L213.549 252.92L221.568 251.507L225.396 250.827L229.075 250.173L232.588 249.533L235.941 248.933L239.109 248.347L242.075 247.787L244.852 247.253L247.411 246.733L249.74 246.253L251.86 245.787L253.759 245.333L255.252 244.947L255.855 244.8L256.953 244.587L258.532 244.307L260.459 243.973L262.701 243.587L265.217 243.173L270.804 242.227L276.956 241.16L283.275 239.987L286.469 239.347L289.583 238.693L292.593 238.013L295.495 237.32L298.252 236.587L300.825 235.813L303.248 234.987L305.549 234.04L307.763 232.88L310.135 231.133L312.74 227.48L313.201 221.373L311.855 217.813L309.952 214.773L307.74 212.147L305.28 209.72L302.541 207.413L299.455 205.107L293.125 200.907L285.985 196.747L278.541 192.773L274.708 190.813L270.933 188.947L267.216 187.133L263.584 185.387L260.083 183.72L256.756 182.147L253.627 180.667L250.757 179.307L248.195 178.053L245.967 176.933L244.175 175.987L242.832 175.213L235.508 170.813L228.16 166.413L220.812 162L213.435 157.573L206.027 153.213L198.652 148.867L191.276 144.52L183.9 140.187L176.528 135.84L169.157 131.507L161.787 127.16L154.431 122.827L147.093 118.467L139.763 114.107L132.453 109.707L125.151 105.32L117.88 100.867L110.613 96.4134L103.381 91.8935L96.1586 87.3868L88.9813 82.7868L81.8107 78.2001L74.6933 73.5067L67.536 68.7868L65.812 67.6401L63.824 66.3067L61.632 64.8535L59.28 63.2801L56.7747 61.5734L54.172 59.7734L48.6333 55.8668L42.9307 51.6535L37.2093 47.1467L34.512 44.9202L31.8613 42.6268L29.3294 40.3202L26.94 38.0268L24.744 35.7734L22.7547 33.5601L20.992 31.4268L19.5133 29.4134L18.3213 27.5202L17.608 26.1601H17.6187L19.6747 25.5467L25.984 24.2535L33.528 23.3334L41.9933 22.7202L46.2654 22.5067L50.6213 22.3601L54.9307 22.2535L59.1413 22.2001L63.1866 22.1868H67L70.5533 22.2134L73.7613 22.2535L76.5693 22.3068L77.8146 22.3202L78.9453 22.3467L79.9493 22.3601L80.84 22.3734L81.608 22.3868H82.404L90.1866 22.2001L97.9547 22.0268L105.724 21.8401L113.608 21.6668L121.411 21.2668L129.099 20.8801L136.785 20.48L144.489 20.08L152.164 19.6668L159.823 19.2535L167.483 18.8268L175.101 18.4134L182.728 18.0668L190.336 17.7334L197.965 17.4935L205.569 17.2668L213.207 17.1868L220.86 17.1068L228.487 17.1601L236.141 17.3202L243.824 17.5868L251.527 17.9868L259.247 18.5067L267.176 19.2001L273.124 19.5467L279.949 19.5734L287.305 19.3868L295.009 19.1201L302.917 18.8268L310.855 18.6268L314.696 18.5868L318.481 18.6001L322.153 18.6801L325.685 18.8268L329.024 19.0535L332.155 19.3734L335.044 19.7868L337.611 20.2801L339.848 20.8668L341.712 21.4935L343.087 22.1201L344.513 23.0401C348.356 25.4667 353.432 24.3201 355.853 20.4668C358.272 16.6268 357.12 11.5601 353.277 9.13345L350.877 7.64008L347.775 6.21338L344.565 5.10675L341.237 4.24008L337.747 3.56015L334.141 3.0535L330.429 2.66678L326.591 2.41339L322.671 2.24008L318.684 2.16013L314.633 2.14673L310.524 2.18683L302.417 2.38684L294.419 2.68005L286.811 2.94672L279.767 3.12015L273.595 3.09348L268.412 2.78683L260.525 2.10675L252.505 1.56015L244.537 1.14673L236.607 0.866791L228.709 0.693481L220.832 0.640076L213.043 0.720154L205.237 0.80011L197.467 1.04007L189.721 1.26678L181.995 1.6134L174.285 1.96014L166.585 2.37341L158.927 2.78683L151.267 3.2001L143.623 3.6134L135.951 4.00012L128.263 4.38684L120.576 4.77341L113.003 5.16013L105.348 5.33344L97.5813 5.50674L89.812 5.68005Z" fill="#100F0D"/>
</svg>
