<svg width="152" height="106" viewBox="0 0 152 106" fill="none" xmlns="http://www.w3.org/2000/svg">
<path d="M149.883 101.867C152.383 98.0667 151.339 92.9733 147.551 90.4667L137.315 83.7066L127.089 76.7867L116.82 69.7333L106.501 62.6133L96.124 55.4534L85.644 48.3201L75.092 41.3867L64.4613 34.4L53.6506 27.8667L42.7547 21.3066L38.6346 19.1333L39.1187 19.0934L42.132 18.84L44.8307 18.6133L47.204 18.3867L49.3053 18.1867L51.1333 18L52.72 17.84L55.2506 17.56L57.0267 17.36L58.1866 17.2667L58.9586 17.24L59.7027 17.2667L60.9533 17.3867L61.712 17.4667L62.7107 17.5867L63.912 17.7466L65.312 17.9201L66.9506 18.1201L68.8373 18.36C73.3426 18.92 77.4506 15.7334 78.0146 11.2267C78.58 6.72003 75.384 2.61331 70.8786 2.03998L69.0093 1.81329L67.396 1.60001L65.996 1.4267L64.756 1.26667L63.6547 1.12006L62.596 1.00001L60.7933 0.839981L58.98 0.773315L57.212 0.839981L55.4627 0.973312L53.5 1.17332L50.9853 1.43998L49.4813 1.58672L47.736 1.76003L45.7173 1.93334L43.4253 2.13334L40.8093 2.33334L37.7973 2.56004L34.276 2.8267L30.9467 3.13334L27.848 3.47996L24.9426 3.85339L22.2294 4.26667L19.7146 4.73334L17.3547 5.23998L15.1387 5.8267L13.0813 6.46667L11.1294 7.18672L9.26002 8.0267L7.5093 9.00001L5.8373 10.1333L4.2373 11.5333L2.82935 13.1466L1.63866 15L0.732023 17.1066L0.133325 19.8267L0.102661 23.2667L0.911971 26.8667L2.17734 29.9201L3.68665 32.6934L5.39869 35.36L7.23463 37.9867L9.14934 40.6133L11.1213 43.28L13.036 45.9066L16.8667 51.5733L20.1013 57.4L22.6667 64.1467C24.392 68.6267 29.4173 70.8533 33.8933 69.1333C38.3667 67.4133 40.596 62.3866 38.8733 57.9066L35.812 50.0667L31.6253 42.5201L27.24 36.0534L25.0294 33.0267L23.1733 30.56L23.5533 30.76L34.264 36.3867L44.7693 42.6667L55.364 48.96L65.7973 55.68L76.3133 62.44L86.7146 69.3467L97.1107 76.3467L107.476 83.4L117.829 90.4267L128.177 97.3867L138.491 104.187C142.279 106.693 147.38 105.653 149.883 101.867Z" fill="#100F0D"/>
</svg>
