<svg width="251" height="434" viewBox="0 0 251 434" fill="none" xmlns="http://www.w3.org/2000/svg">
<path d="M17.2053 121.867L17.472 119.387L17.9026 116.893L18.48 114.547L19.1773 112.32L19.996 110.253L20.9453 108.293L22.0026 106.44L23.164 104.72L24.4573 103.067L25.8586 101.493L27.36 100.04L28.996 98.6402L30.7413 97.3069L32.5813 96.0668L34.5546 94.9069L36.628 93.8134L38.7893 92.8134L40.9106 91.9467L45.8786 90.2535L50.98 88.96L56.3693 87.9868L61.9493 87.3202L67.6506 86.96L73.452 86.9069L79.2759 87.1069L85.044 87.5735L90.728 88.2801L96.2693 89.2134L101.575 90.3334L106.611 91.6402L111.332 93.0933L115.621 94.6668L119.483 96.3467L124.515 98.8267L129.536 101.52L134.525 104.413L139.473 107.467L144.356 110.707L149.184 114.133L153.951 117.72L158.631 121.453L163.236 125.36L167.759 129.413L172.176 133.6L176.499 137.933L180.717 142.387L184.813 146.96L188.789 151.667L192.648 156.467L196.361 161.374L199.939 166.4L200.116 166.667L199.309 168.68L198.184 171.16L196.967 173.48L195.641 175.707L194.231 177.827L192.74 179.813L191.143 181.707L189.464 183.52L187.708 185.2L185.849 186.813L183.911 188.333L181.899 189.747L179.781 191.08L177.589 192.333L175.325 193.48L173.113 194.493L168.021 196.453L162.807 197.987L157.293 199.173L151.552 200.04L145.615 200.547L139.473 200.72L133.192 200.587L126.805 200.12L120.317 199.333L113.776 198.267L107.225 196.907L100.672 195.24L94.1559 193.347L87.7226 191.173L81.3839 188.76L75.1666 186.12L69.1293 183.267L63.2786 180.2L57.6373 176.96L52.2679 173.56L47.1773 169.973L42.38 166.28L37.9493 162.453L33.8839 158.52L30.188 154.52L26.944 150.467L24.1386 146.36L21.7666 142.253L19.8933 138.187L18.5026 134.107L17.56 130.053L17.124 126.08L17.2053 121.867ZM2.34528 138.747L4.29866 144.44L6.85862 149.987L9.94397 155.32L13.4786 160.48L17.4893 165.467L21.9039 170.24L26.6693 174.84L31.8106 179.253L37.2666 183.453L42.9946 187.467L49.0119 191.28L55.2613 194.854L61.7106 198.213L68.3666 201.347L75.1746 204.213L82.1119 206.854L89.1759 209.213L96.3146 211.293L103.507 213.093L110.752 214.6L117.989 215.773L125.213 216.64L132.416 217.147L139.529 217.293L146.563 217.093L153.501 216.493L160.271 215.467L166.888 214.04L173.332 212.133L179.359 209.813L182.507 208.387L185.451 206.893L188.301 205.267L191.075 203.507L193.775 201.613L196.361 199.573L198.857 197.413L201.256 195.107L203.528 192.667L205.687 190.093L207.729 187.36L209.627 184.507L210.433 183.147L212.735 187.307L215.516 192.707L218.123 198.173L220.556 203.693L222.792 209.253L224.833 214.867L226.687 220.507L228.327 226.16L229.751 231.854L230.976 237.56L231.972 243.253L232.735 248.973L233.281 254.693L233.584 260.373L233.64 266.067L233.465 271.747L233.032 277.373L232.335 283L231.392 288.587L230.179 294.107L228.679 299.627L226.919 305.08L224.876 310.48L222.521 315.84L219.887 321.16L216.948 326.387L213.683 331.56L210.635 335.88L207.417 339.84L203.997 343.533L200.412 346.987L196.665 350.173L192.732 353.12L188.644 355.88L184.417 358.413L180.023 360.76L175.495 362.933L170.848 364.92L166.065 366.747L161.177 368.427L156.201 369.96L151.128 371.373L145.981 372.68L140.78 373.867L135.576 374.947L124.883 376.933L114.201 378.68L111.5 379.093L113.891 373.12L116.825 366.733L120.144 360.067L121.848 356.773L123.601 353.467L125.361 350.213L127.109 347.027L128.825 343.933L130.487 340.973L132.08 338.133L133.577 335.467L134.96 333L136.225 330.707L137.347 328.64L138.267 326.867C140.365 322.84 138.805 317.88 134.78 315.773C130.753 313.68 125.788 315.24 123.688 319.267L122.832 320.907L121.804 322.8L120.588 324.987L119.229 327.413L117.737 330.067L116.137 332.907L114.452 335.907L112.699 339.054L110.9 342.307L109.073 345.667L107.241 349.08L105.405 352.6L101.907 359.56L98.6786 366.507L95.9573 373.107L94.7346 376.48L93.7253 379.68L92.9253 382.787L92.336 385.854L92.028 388.96L92.0987 391.933L93.1933 395.64L94.696 397.773L96.0679 399.107L97.3813 400.133L98.7426 401.04L100.152 401.88L101.645 402.693L103.257 403.507L104.976 404.32L106.799 405.147L108.74 406L110.825 406.867L115.157 408.613L119.907 410.427L124.959 412.28L130.239 414.147L135.712 416.027L141.321 417.907L152.565 421.56L163.553 424.973L173.643 428.013L178.267 429.373L182.465 430.587L186.179 431.64L189.405 432.533L192.048 433.227L193.975 433.72C198.629 434.867 203.339 432.04 204.496 427.387C205.653 422.72 202.816 418.014 198.164 416.854L196.389 416.427L193.941 415.773L190.839 414.92L187.217 413.907L183.103 412.733L178.584 411.413L168.599 408.427L157.765 405.093L146.636 401.547L141.169 399.76L135.819 397.96L130.68 396.187L125.797 394.454L125.656 394.4L127.868 394.04L138.871 391.987L144.483 390.813L150.041 389.547L155.577 388.147L161.087 386.613L166.572 384.907L171.991 383.04L177.356 380.987L182.656 378.72L187.853 376.227L192.951 373.507L197.949 370.507L202.789 367.24L207.492 363.693L212.037 359.84L216.371 355.667L220.513 351.173L224.443 346.333L228.097 341.16L231.824 335.254L235.195 329.24L238.203 323.173L240.897 317.027L243.253 310.8L245.268 304.547L246.98 298.24L248.375 291.88L249.449 285.493L250.241 279.107L250.732 272.667L250.928 266.253L250.864 259.827L250.519 253.4L249.905 247L249.049 240.627L247.936 234.253L246.577 227.933L245 221.654L243.183 215.4L241.144 209.213L238.904 203.067L236.448 196.987L233.792 190.973L230.953 185.04L227.921 179.16L224.708 173.387L221.333 167.693L218.417 163.093L218.933 160.893L219.651 157L220.199 153L220.596 148.88L220.825 144.627L220.883 140.24L220.783 135.747L220.508 131.107L220.056 126.333L219.443 121.453L218.645 116.413L217.659 111.213L216.424 105.693L214.94 100.147L213.239 94.6535L211.345 89.1868L209.247 83.7735L206.969 78.4402L204.532 73.1868L201.928 68.0134L199.177 62.9467L196.3 58.0001L193.287 53.1736L190.084 48.4001L185.921 42.8933L181.08 37.4933L175.761 32.3735L170.049 27.4933L163.947 22.88L157.563 18.6001L150.959 14.6266L144.153 11.0001L137.251 7.7868L130.293 4.95999L123.309 2.57355L116.651 0.76001C112.271 -0.426666 107.752 2.16003 106.561 6.54672C105.372 10.92 107.959 15.44 112.34 16.6266L118.488 18.2933L124.531 20.36L130.669 22.8535L136.808 25.7202L142.847 28.9334L148.737 32.48L154.409 36.2933L159.749 40.3202L164.711 44.56L169.245 48.9202L173.225 53.36L176.696 57.9735L179.464 62.1201L182.201 66.5069L184.829 71.0267L187.341 75.6402L189.708 80.3467L191.928 85.1334L193.997 89.9868L195.887 94.8668L197.591 99.7868L199.115 104.707L200.427 109.613L201.527 114.547L202.409 119.24L203.124 123.76L203.669 128.147L204.068 132.36L204.305 136.413L204.388 140.32L204.343 143.6L202.039 140.733L197.759 135.68L193.335 130.76L188.792 125.974L184.137 121.307L179.359 116.8L174.481 112.44L169.505 108.24L164.425 104.187L159.263 100.32L154.021 96.6134L148.689 93.08L143.293 89.7467L137.833 86.6001L132.3 83.6535L126.684 80.8933L121.929 78.8267L116.743 76.9467L111.237 75.2535L105.463 73.76L99.4119 72.4933L93.1679 71.4668L86.7733 70.6668L80.2346 70.1467L73.6426 69.9334L67.0213 70.0134L60.392 70.4402L53.8493 71.2402L47.3987 72.4134L41.0733 74.0267L35.1426 76.0402L32.0213 77.3202L29.1106 78.6668L26.2987 80.16L23.564 81.7868L20.9053 83.5735L18.3773 85.5069L15.9546 87.5868L13.6466 89.8402L11.5026 92.2535L9.50263 94.8267L7.65862 97.5735L6.01598 100.467L4.55328 103.493L3.28798 106.707L2.24528 110.027L1.4066 113.493L0.787984 117.107L0.391956 121.027L0.315979 126.88L0.982646 132.907L2.34528 138.747Z" fill="#100F0D"/>
</svg>
