<svg width="741" height="208" viewBox="0 0 741 208" fill="none" xmlns="http://www.w3.org/2000/svg">
<path d="M381.28 21.04L389.627 22.1334L397.973 23.2133L406.293 24.5601L414.613 25.9067L422.88 27.5201L431.173 29.1467L439.427 31L447.653 32.8534L455.827 34.9601L464 37.0667L472.107 39.44L480.213 41.8L488.253 44.4L496.28 47L504.227 49.84L512.16 52.68L519.987 55.7733L527.827 58.8534L535.573 62.1734L543.293 65.48L550.893 69.0267L558.507 72.5733L565.973 76.3601L573.44 80.1466L580.787 84.1466L588.12 88.1334L595.307 92.3601L602.48 96.5733L609.48 101.027L616.507 105.48L623.36 110.133L630.2 114.787L636.853 119.653L643.52 124.52L649.973 129.613L656.467 134.72L662.747 139.933L668.946 145.28L675.053 150.72L681.04 156.267L686.92 161.907L692.68 167.653L698.32 173.493L703.84 179.427L709.24 185.467L714.52 191.6L719.667 197.813L724.733 204.213C727.707 207.96 733.173 208.6 736.933 205.613C740.68 202.64 741.32 197.173 738.333 193.413L733.16 186.893L727.787 180.4L722.28 174.013L716.667 167.733L710.907 161.547L705.027 155.48L699.04 149.507L692.933 143.64L686.707 137.893L680.373 132.24L673.92 126.707L667.346 121.253L660.68 116L653.987 110.733L647.08 105.68L640.173 100.64L633.08 95.8267L626 91.0133L618.747 86.4267L611.493 81.8267L604.053 77.4534L596.627 73.0934L589.04 68.9733L581.467 64.8534L573.76 60.9601L566.04 57.0534L558.173 53.4L550.32 49.7601L542.333 46.3466L534.36 42.9467L526.28 39.7733L518.187 36.6L510 33.68L501.8 30.7601L493.507 28.0934L485.227 25.44L476.88 23.0133L468.52 20.6L460.08 18.4267L451.64 16.2667L443.147 14.3734L434.653 12.48L426.12 10.84L417.573 9.18677L409 7.81332L400.413 6.44002L391.787 5.33337L383.187 4.24002L374.573 3.38676L365.939 2.54666L357.297 1.97336L348.657 1.41333L340.02 1.13338L331.393 0.853424L322.78 0.826736L314.153 0.813324L305.553 1.07999L296.948 1.36008L288.383 1.93338L279.861 2.49341L271.296 3.26671L262.783 4.18677L254.305 5.26671L245.856 6.46671L237.433 7.82674L229.053 9.34666L220.709 11L212.399 12.8133L204.139 14.7733L195.921 16.8667L187.749 19.1334L179.635 21.5467L171.571 24.1201L163.559 26.84L155.612 29.7201L147.725 32.7601L139.897 35.9467L132.145 39.3067L124.46 42.8133L116.843 46.48L109.309 50.3201L101.852 54.3067L94.4666 58.4667L87.1746 62.7868L79.9653 67.2667L72.8413 71.9067L65.8172 76.7201L58.8826 81.6934L52.0426 86.84L45.3119 92.1601L38.6786 97.6267L32.1479 103.28L25.7372 109.107L19.4293 115.08L18.2372 116.267L18.9266 112.387L20.0853 107.12L20.7066 104.547L21.3706 101.947L22.0519 99.4L22.7399 96.9067L23.4199 94.5201L24.0812 92.2534L24.7106 90.1201L25.296 88.1466L25.8253 86.3733L26.2919 84.7601L26.6892 83.3334L26.8826 82.5466L30.1506 71.7334L34.5092 61.8L39.8079 51.6133C41.9066 47.5867 40.3399 42.6267 36.3119 40.5334C32.2852 38.4267 27.3199 40.0001 25.2239 44.0267L19.6693 54.6934L14.7053 66.0133L11.0679 77.7733L10.7386 79.0133L10.4053 80.1868L9.96529 81.68L9.44257 83.4133L8.84791 85.3867L8.19726 87.5601L7.50657 89.8934L6.78391 92.3733L6.04257 94.9733L5.29726 97.6667L4.55995 100.453L3.83196 103.347L2.52525 109.04L1.44791 114.8L0.759953 120.24L0.559953 123.133L0.522583 125.853L0.669263 128.507L1.04257 131.173L1.76659 133.92L2.84661 136.413L5.54394 139.573L7.75058 140.827L9.38658 141.373L10.7933 141.693L12.1546 141.907L13.6333 142.053L16.3493 142.2L19.5386 142.227L23.0613 142.173L26.8732 142.04L30.9799 141.84L35.3199 141.56L39.832 141.253L44.4866 140.893L49.232 140.507L58.7039 139.667L67.8706 138.827L76.2239 138.053L79.9746 137.72L83.3493 137.427L86.2746 137.2L88.7119 137.04L90.4973 136.96H91.7199C96.5172 136.933 100.383 133.013 100.357 128.227C100.331 123.427 96.4212 119.56 91.6252 119.587L89.9732 119.6L87.6919 119.707L84.9986 119.893L81.9213 120.147L78.4466 120.44L74.6252 120.8L66.2573 121.587L57.1239 122.453L47.7146 123.32L43.0719 123.72L38.5213 124.107L34.1333 124.44L33.4133 124.493L36.9226 121.16L43.06 115.6L49.2973 110.2L55.6452 104.96L62.0879 99.88L68.6239 94.9601L75.2653 90.2L81.9906 85.6L88.8039 81.1601L95.7133 76.8667L102.703 72.7334L109.769 68.7601L116.928 64.9334L124.159 61.2667L131.461 57.7467L138.843 54.3868L146.293 51.1734L153.804 48.1201L161.389 45.2133L169.033 42.44L176.732 39.8267L184.497 37.3734L192.315 35.0534L200.177 32.88L208.101 30.8667L216.067 28.9733L224.072 27.2534L232.129 25.6667L240.223 24.2267L248.347 22.9201L256.513 21.7733L264.709 20.7601L272.928 19.88L281.148 19.1601L289.472 18.6133L297.751 18.08L306.068 17.84L314.387 17.5868L322.729 17.6267L331.085 17.6534L339.456 17.9467L347.816 18.24L356.18 18.8L364.545 19.3601L372.902 20.2L381.28 21.04Z" fill="#100F0D"/>
</svg>
