<svg width="120" height="715" viewBox="0 0 120 715" fill="none" xmlns="http://www.w3.org/2000/svg">
<path d="M107.011 661.427L101.273 664.427L95.7999 667.787L90.864 671.28L86.3707 674.827L82.3066 678.36L78.6533 681.8L75.3359 685.067L72.3533 688.093L69.6679 690.787L67.2587 693.093L65.1746 694.893L63.4213 696.133L65.26 691.253L66.9426 686.213L68.3867 681.307L69.5786 676.52L70.52 671.893L71.2453 667.36L71.7346 662.933L72.0013 658.653L72.0679 654.467L71.9239 650.373L71.5839 646.413L71.0692 642.56L70.376 638.787L69.5186 635.147L68.5226 631.6L67.3786 628.133L66.0613 624.653L63.2893 618.333L60.092 612.187L56.648 606.32L53.0546 600.64L49.3692 595.12L45.6893 589.693L42.0786 584.307L38.6119 578.933L35.3572 573.48L32.3572 567.947L29.6999 562.267L27.4253 556.347L25.5546 550.187L24.188 543.693L23.364 536.547L23.3427 535.44L23.4279 534.32L23.6292 533.24L23.9213 532.227L24.3093 531.28L24.8333 530.307L25.4773 529.307L26.2466 528.32L27.1867 527.293L28.2692 526.253L29.4893 525.227L30.7412 524.267L34.0399 522.053L37.664 520L41.704 517.96L46.0386 515.947L50.6012 513.933L55.4773 511.827L64.6519 507.467L74.5706 502.68L82.1626 496.48L90.616 488.907L93.3893 478.253L95.22 469.547L94.7279 464.507L94.0359 461.64L93.164 458.88L92.1359 456.187L90.9427 453.56L89.5253 450.853L86.6333 446.173L83.2012 441.547L79.448 437.173L75.4506 432.987L71.2346 428.933L66.8867 425.04L62.4653 421.253L58.0147 417.573L53.6307 413.987L45.1666 406.987L37.6226 400.24L31.3399 393.547L29.1012 390.64L27.2453 387.72L25.8053 384.68L25.4239 383.6L25.0773 382.347L24.8412 381.093L24.7132 379.867L24.6959 378.667L24.8026 377.44L25.0239 376.147L25.3359 375.04L25.76 373.973L26.2733 372.96L26.8826 372L27.6373 371.04L28.5147 370.067L29.516 369.12L30.6826 368.173L31.9839 367.227L33.4106 366.293L34.8572 365.453L38.488 363.587L42.376 361.88L46.6066 360.227L51.0706 358.587L55.7025 356.96L60.5186 355.24L69.9546 351.533L79.1026 346.853L86.5506 341.093L88.9253 338.64L90.5999 336.507L92.0799 334.24L93.3786 331.8L94.46 329.173L95.2799 326.427L95.8493 323.573L96.1493 320.573L96.1733 317.52L95.9453 314.387L95.448 311.16L94.6973 307.893L93.9466 305.467L92.988 303.107L91.8679 300.84L90.6106 298.627L89.204 296.453L87.5906 294.2L84.3333 290.133L80.5613 286L76.464 281.893L72.1119 277.827L67.5292 273.76L62.7973 269.733L57.9799 265.733L53.1333 261.773L48.3399 257.893L39.0826 250.307L30.8173 243.173L24.0253 236.52L21.588 233.76L19.6893 231.24L18.3399 228.92L18.1253 228.413L17.9466 227.893L17.8893 227.613L18.2506 226.693L18.7613 225.667L19.3626 224.653L20.0373 223.693L20.7826 222.787L21.4533 222.08L23.648 220.16L26.0346 218.547L28.864 217.013L32.048 215.56L35.5493 214.213L39.3493 212.96L43.3719 211.76L47.5719 210.613L52.0119 209.453L60.7226 207.013L70.0239 204.387L78.1506 200.64L87.1626 196.227L93.3572 189.093L98.3813 182.973L100.216 178.92L100.759 176.44L100.975 174L100.923 171.613L100.617 169.253L100.109 167L99.4346 164.827L98.5999 162.693L97.6412 160.627L96.5786 158.587L95.3986 156.573L94.0613 154.493L91.3679 150.667L88.2852 146.747L84.9692 142.813L81.476 138.893L77.8359 134.933L74.1119 130.973L66.6427 123.053L59.472 115.187L53.0119 107.387L50.3386 103.787L47.9666 100.227L46.0186 96.8267L44.5025 93.6533L43.5012 90.8133L42.932 87.9601L42.7079 85.88L42.5626 83.6667L42.5292 81.5466L42.5933 79.52L42.7533 77.64L42.9692 76.0267L43.7506 72.4L44.8066 69.3199L46.1852 66.4L47.8427 63.6133L49.788 60.9601L52.0559 58.3467L54.5959 55.7866L57.3959 53.28L60.4572 50.7734L63.7226 48.28L67.1679 45.7866L70.7707 43.2533L74.4786 40.6667L78.2719 37.9866L82.1946 35.1199L89.788 29.1467L97.1959 22.2267L103.533 14.68C106.609 11 106.119 5.52002 102.44 2.44C98.7599 -0.626648 93.2826 -0.146606 90.2079 3.53339L84.5867 10.2934L78.492 15.9601L71.632 21.3467L68.1546 23.88L64.504 26.4667L60.8025 29.0533L57.0813 31.68L53.3666 34.3734L49.7106 37.1733L46.1253 40.0934L42.6427 43.2267L39.3427 46.5601L36.2333 50.1467L33.3733 54.0667L30.8692 58.28L28.7346 62.84L27.0533 67.7733L25.9493 72.7733L25.532 75.72L25.2933 78.5466L25.2053 81.4268L25.2519 84.3734L25.4533 87.4268L25.844 90.8133L26.8173 95.4667L28.4986 100.267L30.6826 104.88L33.2519 109.36L36.1933 113.773L39.4973 118.2L46.4147 126.547L53.9546 134.813L61.5226 142.827L65.1732 146.72L68.6533 150.493L71.9066 154.147L74.8906 157.667L77.5093 161L79.792 164.24L80.6613 165.613L81.4679 166.987L82.1506 168.28L82.7079 169.48L83.1266 170.547L83.4213 171.493L83.6093 172.307L83.6933 172.933L83.704 173.453L83.688 173.68L80.0307 178.093L76.7466 182.453L70.86 184.987L64.0906 188.187L56.0666 190.413L47.4533 192.84L43.1093 193.973L38.632 195.213L34.176 196.547L29.7546 198.013L25.3933 199.693L21.1746 201.627L17.088 203.867L13.1773 206.533L9.79194 209.467L7.93725 211.387L6.36531 213.293L4.94526 215.32L3.66264 217.48L2.52931 219.8L1.55997 222.28L0.914597 224.827L0.699948 227.533L0.899948 230.067L1.40392 232.453L2.17326 234.733L3.26661 237.12L5.45861 240.827L8.34259 244.653L11.7799 248.52L19.2572 255.8L28.0786 263.413L37.5386 271.147L42.3613 275.04L47.144 278.933L51.8307 282.8L56.3613 286.653L60.6519 290.44L64.6373 294.147L68.264 297.76L71.4173 301.213L74.1427 304.613L75.1572 306.027L76.0946 307.467L76.876 308.84L77.5053 310.093L77.96 311.2L78.2653 312.187L78.7786 314.387L79.0826 316.333L79.2119 318.107L79.2066 319.693L79.0692 321.08L78.8147 322.36L78.4679 323.533L78.0346 324.587L77.4813 325.627L76.8253 326.64L76.0613 327.613L75.7213 328.067L70.0733 332.547L63.048 336.107L54.5079 339.453L50.0399 341.053L45.3546 342.72L40.6279 344.453L35.9053 346.307L31.2453 348.373L26.8893 350.613L24.572 351.96L22.4307 353.36L20.3733 354.867L18.3933 356.493L16.4946 358.293L14.7399 360.24L13.1186 362.347L11.6546 364.653L10.4186 367.107L9.39995 369.693L8.62664 372.467L8.13862 375.307L7.91193 378.08L7.94793 380.853L8.23198 383.533L8.72931 386.16L9.44663 388.733L10.4493 391.44L12.588 395.88L15.404 400.307L18.7959 404.653L25.964 412.253L34.2826 419.667L43.0186 426.88L47.416 430.467L51.7279 434.027L55.9147 437.6L59.9239 441.173L63.6746 444.747L67.12 448.347L70.2186 451.947L72.8799 455.507L75.1826 459.253L76.0213 460.853L76.8173 462.6L77.492 464.36L78.0493 466.107L78.472 467.827L78.7613 467.453L77.1692 474.8L76.5213 480.187L71.5799 483.733L65.7786 488.653L57.5359 492.52L48.548 496.8L43.9773 498.773L39.2079 500.88L34.4893 503.093L29.8572 505.427L25.372 507.987L21.2867 510.707L19.1333 512.347L17.1839 514.013L15.3519 515.773L13.6253 517.667L12.0186 519.733L10.596 521.933L9.35327 524.28L8.31993 526.827L7.55861 529.453L7.05594 532.2L6.83992 535.067L6.93725 538.147L7.90262 546.347L9.57592 554.267L11.8307 561.693L14.5333 568.72L17.6453 575.36L21.0427 581.627L24.6186 587.613L28.3186 593.36L32.0399 598.907L35.7106 604.307L39.2533 609.613L42.5959 614.893L45.6893 620.16L48.4453 625.44L50.8773 631L51.864 633.613L52.7826 636.4L53.5839 639.253L54.2706 642.16L54.8186 645.133L55.2279 648.2L55.5012 651.36L55.616 654.613L55.5626 658L55.348 661.52L54.944 665.147L54.3386 668.947L53.5373 672.893L52.5173 677L51.2546 681.28L49.7666 685.733L48.744 688.453L47.1053 686.587L45.1106 684.2L42.9946 681.533L40.7466 678.573L38.3867 675.333L35.9012 671.813L33.2226 667.907L30.072 663.413L26.8572 659.027L23.788 654.773L20.9587 650.6L18.4867 646.507L16.2733 641.987C14.2666 637.92 9.33998 636.24 5.26531 638.24C1.19198 640.253 -0.486731 645.173 1.51994 649.253L4.04129 654.373L7.0866 659.453L10.2893 664.2L13.5106 668.693L16.6359 673L19.6119 677.293L22.276 681.227L24.8813 684.96L27.372 688.427L29.7707 691.667L32.0839 694.653L34.3132 697.387L36.4826 699.907L38.604 702.227L40.6706 704.32L42.7186 706.227L44.7666 707.96L46.8093 709.48L48.8813 710.827L51.0292 711.987L53.2079 712.92L55.4506 713.64L57.7906 714.12L60.1079 714.307L62.404 714.24L64.676 713.893L66.7986 713.333L68.7999 712.587L70.7053 711.68L72.6653 710.533L75.6959 708.413L78.7292 705.853L81.6386 703.133L84.5359 700.28L87.5066 697.307L90.6173 694.267L93.892 691.2L97.3959 688.16L101.207 685.173L105.32 682.28L109.799 679.533L115.017 676.84C119.273 674.627 120.931 669.387 118.72 665.133C116.508 660.88 111.267 659.213 107.011 661.427Z" fill="#100F0D"/>
</svg>
