<svg width="297" height="360" viewBox="0 0 297 360" fill="none" xmlns="http://www.w3.org/2000/svg">
<path d="M36.296 282.773L45.3254 290.24L50.0013 293.893L54.684 297.387L59.4267 300.747L64.244 303.987L69.1573 307.08L74.1573 310.013L79.2534 312.8L84.4733 315.4L89.7974 317.827L95.24 320.067L100.831 322.107L106.543 323.933L112.388 325.547L118.4 326.947L124.552 328.08L130.849 329.013L137.333 329.667L143.96 330.08L149.813 330.187L155.64 330.04L161.4 329.627L167.107 328.987L172.773 328.08L178.373 326.947L183.893 325.587L189.36 323.987L194.733 322.187L200.027 320.173L205.24 317.947L210.347 315.52L215.36 312.92L220.28 310.12L225.08 307.147L229.773 304L234.347 300.68L238.8 297.187L243.133 293.56L247.333 289.76L251.387 285.827L255.307 281.773L259.093 277.56L262.72 273.213L266.187 268.773L269.52 264.187L272.653 259.493L275.64 254.707L278.453 249.813L281.08 244.813L283.533 239.747L285.787 234.573L287.84 229.32L289.72 224.013L291.373 218.613L292.813 213.16L294.053 207.667L295.067 202.093L295.84 196.493L296.4 190.853L296.707 185.16L296.76 179.467L296.587 173.747L296.147 167.987L295.44 162.253L294.48 156.52L293.24 150.76L291.72 145.013L289.133 136.813L286.107 128.613L282.653 120.52L278.853 112.533L274.64 104.68L270.08 97.04L265.187 89.6133L259.947 82.4133L254.387 75.5466L248.533 68.9867L242.373 62.7867L236.013 57.08L230.44 52.44L224.853 48.0133L219.187 43.7333L213.453 39.6133L207.613 35.64L201.667 31.8267L195.627 28.1867L189.44 24.6934L183.147 21.3867L176.72 18.2534L170.133 15.2934L163.427 12.5201L158.16 10.5201L152.973 8.70663L147.853 7.07996L142.8 5.61328L137.813 4.33334L132.897 3.22668L128.047 2.27994L123.256 1.50665L118.551 0.893372L113.911 0.439972L109.332 0.133331L104.845 0H100.428L96.0746 0.160034L91.816 0.466675L87.6307 0.906647L83.516 1.47995L79.3641 2.23999L71.7066 4.0267L64.2387 6.36002L57.1707 9.18674L50.448 12.4267L44.0893 16.1201L38.1613 20.2L32.6079 24.6133L27.456 29.3867L22.7534 34.4534L18.4493 39.7733L14.572 45.36L11.1626 51.1466L8.1707 57.1066L5.63203 63.2534L3.57461 69.5067L1.95599 75.8667L0.816016 82.32L0.177344 88.8L0 95.2799L0.333333 101.8L1.18672 108.24L2.52396 114.613L4.40937 120.907L6.83203 127.04L9.75872 133L13.26 138.787L17.2 144.16L19.516 146.947L21.8814 149.547L24.3746 152.053L26.996 154.48L29.7707 156.827L32.6693 159.08L35.6947 161.24L38.872 163.307L42.172 165.28L45.5974 167.133L49.1733 168.893L52.872 170.533L56.6934 172.067L60.6641 173.493L64.7587 174.787L68.976 175.96L73.3387 177.013L77.8293 177.947L82.4427 178.747L87.204 179.413L92.0906 179.933L97.104 180.333L102.265 180.587L107.579 180.693L113.563 180.627L119.497 180.347L125.339 179.827L131.112 179.12L136.84 178.173L142.493 177.013L148.107 175.667L153.693 174.093L159.227 172.32L164.76 170.36L170.28 168.2L175.693 165.88C179.867 164.08 181.8 159.253 180.013 155.08C178.227 150.907 173.387 148.973 169.213 150.76L164.027 152.987L159 154.96L153.973 156.747L148.96 158.347L143.947 159.747L138.92 160.96L133.86 162L128.771 162.827L123.608 163.467L118.383 163.933L113.084 164.187L107.647 164.24L102.832 164.133L98.1547 163.907L93.6213 163.547L89.224 163.08L84.9893 162.48L80.8921 161.773L76.9293 160.96L73.1254 160.027L69.4547 159L65.916 157.88L62.5333 156.68L59.2773 155.36L56.1466 153.973L53.1667 152.507L50.3107 150.96L47.5733 149.333L44.9827 147.64L42.5079 145.867L40.1493 144.04L37.928 142.147L35.8186 140.187L33.8186 138.187L31.9493 136.133L30.2893 134.133L26.976 129.627L24.2359 125.093L21.924 120.36L20.0053 115.507L18.5267 110.547L17.4654 105.453L16.7827 100.293L16.5214 95.0934L16.672 89.84L17.1947 84.5733L18.1186 79.36L19.4534 74.1466L21.1453 69.0133L23.2214 63.9867L25.6947 59.08L28.5147 54.2934L31.696 49.7201L35.2641 45.3201L39.1613 41.1201L43.3987 37.2L48.016 33.5333L52.952 30.1466L58.212 27.1067L63.848 24.4L69.796 22.0267L76.0626 20.08L82.8427 18.5067L86.144 17.9333L89.6547 17.44L93.2654 17.0667L96.956 16.8L100.717 16.68H104.577L108.517 16.8133L112.531 17.08L116.64 17.4934L120.827 18.04L125.088 18.7466L129.445 19.6L133.876 20.6L138.387 21.76L142.973 23.1067L147.653 24.6L152.387 26.2667L157.2 28.1067L163.48 30.7066L169.573 33.4534L175.533 36.3867L181.387 39.4667L187.12 42.7201L192.76 46.1333L198.307 49.6934L203.773 53.4267L209.16 57.3201L214.493 61.36L219.76 65.56L224.92 69.8534L230.707 75.0534L236.187 80.5867L241.453 86.5201L246.48 92.7466L251.213 99.2667L255.667 106.067L259.84 113.053L263.653 120.213L267.12 127.507L270.253 134.907L272.987 142.333L275.32 149.827L276.627 154.747L277.693 159.707L278.507 164.693L279.12 169.68L279.493 174.653L279.64 179.627L279.587 184.6L279.307 189.533L278.813 194.467L278.133 199.373L277.24 204.24L276.147 209.08L274.867 213.88L273.4 218.627L271.747 223.333L269.907 227.987L267.907 232.547L265.72 237.067L263.373 241.507L260.88 245.867L258.2 250.133L255.387 254.32L252.427 258.4L249.307 262.373L246.067 266.253L242.693 270L239.173 273.64L235.547 277.16L231.8 280.52L227.92 283.76L223.96 286.88L219.893 289.827L215.707 292.613L211.44 295.267L207.093 297.733L202.653 300.04L198.147 302.187L193.56 304.133L188.907 305.893L184.187 307.493L179.413 308.88L174.573 310.053L169.693 311.053L164.773 311.827L159.8 312.4L154.8 312.747L149.76 312.88L144.693 312.773L138.733 312.413L132.987 311.827L127.392 311L121.94 309.987L116.656 308.76L111.489 307.32L106.439 305.707L101.517 303.907L96.6853 301.92L91.9387 299.76L87.288 297.427L82.6987 294.92L78.168 292.267L73.7053 289.453L69.2799 286.48L64.8906 283.36L60.54 280.12L56.2693 276.773L47.5786 269.573L38.9693 261.973L36.9853 260.133L37.8786 260.067L46.7427 259.973L55.7853 259.893L60.3613 259.947L64.9654 260.013L69.4613 260.093L73.8013 260.2L77.9094 260.307L81.7186 260.427L85.2026 260.533L88.272 260.627L90.856 260.72L91.976 260.747L92.9573 260.773L93.8 260.8L94.5213 260.813H95.144H95.584C100.124 260.733 103.745 257 103.672 252.453C103.597 247.92 99.8573 244.293 95.3173 244.373H95.132H94.7733L94.1773 244.36L93.4066 244.333L92.4693 244.307L91.3799 244.28L88.8066 244.187L85.7346 244.093L82.2293 243.973L78.388 243.853L74.2333 243.733L69.8387 243.627L65.2786 243.52L60.5906 243.427L55.7746 243.36L46.632 243.413L37.3107 243.44L29.9079 243.907L22.7974 244.373L20.3733 244.907L20.2814 244.947L20.0974 245.013L19.8173 245.12L19.4493 245.253L18.9867 245.427L18.4333 245.64L17.7853 245.88L16.9133 246.213L15.9507 246.627L14.996 247.08L14.0254 247.613L13 248.28L11.8786 249.213L10.652 250.587L9.46797 252.693L9.01328 254.213L8.96667 254.427L8.92539 254.6L8.89206 254.747L8.86406 254.867L8.84401 254.96L8.83073 255.013L8.82266 255.04L8.65339 256.107L8.38932 258.88L8.32539 262.267L8.43594 265.88L8.71471 269.787L9.12799 273.933L9.65469 278.293L10.2921 282.88L11.0186 287.627L11.8201 292.493L12.6853 297.467L13.6013 302.507L15.5 312.533L17.4346 322.32L19.2507 331.467L20.0814 335.707L20.8387 339.667L21.504 343.28L22.0707 346.52L22.5107 349.307L22.8307 351.693C23.4721 356.453 27.844 359.787 32.596 359.133C37.3493 358.493 40.6813 354.12 40.04 349.373L39.6853 346.76L39.184 343.653L38.5733 340.2L37.8746 336.44L37.0921 332.4L36.2374 328.093L34.4013 318.933L32.456 309.213L30.5186 299.293L29.596 294.4L28.7214 289.573L27.9147 284.867L27.1786 280.333L26.5387 276.027L26.2587 273.867L27.328 274.853L36.296 282.773Z" fill="#100F0D"/>
</svg>
