<svg width="491" height="161" viewBox="0 0 491 161" fill="none" xmlns="http://www.w3.org/2000/svg">
<path d="M237.933 76.16L242.213 78.9467L246.227 81.8266L250 84.8133L253.52 87.8933L256.733 91.0402L259.653 94.2933L262.293 97.6266L264.6 101L266.6 104.48L268.293 108.027L269.653 111.627L270.68 115.347L271.4 119.16L271.76 123.067V127.2L271.52 129.84L271.08 132.107L270.453 134.067L269.707 135.747L268.84 137.133L267.84 138.36L266.72 139.44L265.467 140.347L264 141.16L262.36 141.867L260.56 142.413L258.52 142.827L256.32 143.093L253.987 143.187L251.48 143.093L248.88 142.84L246.187 142.4L243.413 141.774L240.6 140.974L237.773 140.013L234.92 138.867L232.093 137.574L229.32 136.12L226.587 134.507L223.92 132.774L221.373 130.893L218.933 128.893L216.6 126.774L214.44 124.56L212.44 122.24L210.6 119.827L208.96 117.36L207.52 114.8L206.28 112.187L205.28 109.533L204.493 106.8L203.92 104.013L203.613 101.2L203.56 98.28L203.76 95.2933L204.24 92.2402L205.053 89.0667L206.187 85.7868L207.667 82.4266L209.573 78.9467L211.867 75.3467L214.6 71.68L217.84 67.9068L219.333 66.36L223.84 68.4402L228.747 70.9068L233.44 73.4667L237.933 76.16ZM2.06125 125.52L2.82531 128.56L3.7132 131.413L4.76255 134.24L5.96125 137.04L7.33586 139.84L8.77726 142.44C10.9853 146.414 15.9906 147.84 19.9586 145.627C23.9266 143.427 25.3533 138.413 23.148 134.453L21.9066 132.227L20.9079 130.187L20.0346 128.133L19.2773 126.093L18.6506 124.08L18.1799 122.253L17.4172 118.013L17.1399 114.013L17.2732 109.987L17.764 105.947L18.6333 101.96L19.8799 97.9467L21.4452 93.96L23.3386 90.0402L25.564 86.16L28.0559 82.36L30.8119 78.6933L33.8292 75.1201L37.048 71.68L40.4465 68.4133L44.0279 65.3201L47.7346 62.4133L51.5373 59.7201L55.4333 57.2534L59.3679 55.0266L63.304 53.0534L67.2599 51.3467L70.3039 50.2266L73.6786 49.2001L77.3839 48.2667L81.3533 47.4266L85.5732 46.7068L90.0546 46.0933L94.7412 45.6001L99.6253 45.2266L104.707 44.9735L109.944 44.8402H115.325L120.849 44.96L126.48 45.2001L132.204 45.56L138.019 46.0667L143.895 46.68L149.813 47.4266L155.692 48.28L167.717 50.4001L179.584 53.0133L191.352 56.1735L197 57.8933L202.307 59.6667L201.2 60.96L197.76 65.5868L194.813 70.2133L192.297 74.8534L190.237 79.5201L188.651 84.1467L187.479 88.76L186.748 93.3735L186.455 97.88L186.545 102.307L187.037 106.667L187.895 110.88L189.076 114.947L190.585 118.907L192.387 122.667L194.427 126.28L196.72 129.733L199.227 133L201.907 136.093L204.787 139.027L207.8 141.774L210.96 144.347L214.24 146.747L217.627 148.96L221.08 150.987L224.64 152.84L228.24 154.48L231.88 155.933L235.573 157.187L239.267 158.213L242.973 159.04L246.693 159.64L250.373 160L254.027 160.12L257.68 159.96L261.24 159.533L264.733 158.8L268.187 157.733L271.467 156.32L274.613 154.56L277.587 152.36L280.253 149.813L282.613 146.907L284.64 143.613L286.227 140.04L287.44 136.227L288.227 132.133L288.6 127.8L288.587 122.28L288.067 116.813L287.067 111.533L285.627 106.4L283.747 101.413L281.453 96.6534L278.813 92.0667L275.787 87.6535L272.44 83.4534L268.827 79.4402L264.893 75.6001L260.707 71.9467L256.293 68.4534L251.627 65.1334L246.773 61.9735L241.72 58.9735L236.467 56.1068L233.507 54.6402L236.627 52.6667L240.893 50.3334L245.307 48.2001L249.853 46.28L254.573 44.5735L259.427 43.0534L264.4 41.7467L269.52 40.6266L274.76 39.68L280.107 38.9201L285.573 38.3467L291.12 37.9201L296.76 37.6667L302.493 37.5868L308.293 37.6402L314.133 37.8402L320.053 38.1868L326.013 38.6534L332 39.2534L337.96 39.96L350.133 41.7068L362.24 43.8534L374.28 46.3467L386.227 49.08L397.96 52.0266L409.427 55.1467L420.613 58.3334L431.387 61.5735L441.72 64.7735L451.573 67.8933L460.84 70.8667L463.813 71.8266L460.733 73.0402L456.213 74.76L451.32 76.56L446.173 78.4133L440.813 80.3201L435.307 82.2534L424.107 86.1467L413.08 90.0266L402.827 93.7334L398.027 95.5201L393.6 97.2402L389.587 98.88L385.973 100.453L382.787 101.973L380.36 103.333C376.173 105.667 374.68 110.96 377.027 115.147C379.373 119.333 384.653 120.827 388.84 118.48L390.733 117.413L393.173 116.24L396.32 114.867L400.013 113.347L404.2 111.72L408.787 110L418.907 106.307L429.84 102.44L441.027 98.4667L446.573 96.4933L452 94.5201L457.24 92.5868L462.253 90.6933L466.96 88.8534L471.28 87.1068L473.346 86.2266L475.28 85.3735L477.107 84.5467L478.827 83.7334L480.44 82.9201L481.933 82.1068L483.36 81.28L484.72 80.4001L486.013 79.4133L487.36 78.1868L488.253 77.1201L489.413 75.2001L489.427 75.1868V75.1735L489.44 75.1467L489.453 75.1201L489.467 75.08L489.48 75.0402L489.507 74.9868L490.227 71.6667L489.96 69.4667L489.693 68.5467L489.467 67.8933L489.213 67.28L488.947 66.6266L488.64 65.9334L488.293 65.1735L487.92 64.3467L487.6 63.6667L487.333 63.0667L487.107 62.5735L486.92 62.1868L486.787 61.88L486.693 61.68L486.653 61.5868L485.627 59.9068L481.08 54.1068L476.373 48.1201L470.093 40.9735L463.933 33.9334L460.627 30.28L457.36 26.7201L454.16 23.2534L451.053 19.9201L448.067 16.7467L445.28 13.7868L442.693 11.0667L440.36 8.62662L438.333 6.53339L437.44 5.61334L436.627 4.78677L435.92 4.05344L435.307 3.42662L434.773 2.90683L434.373 2.50682C431.147 -0.67984 425.947 -0.653168 422.747 2.5735C419.56 5.80016 419.587 11.0001 422.813 14.2001L423.16 14.5467L423.613 15.0001L424.187 15.5868L424.867 16.28L425.64 17.0667L426.507 17.96L428.493 20.0266L430.773 22.4133L433.333 25.1068L436.08 28.0133L439.013 31.1467L442.067 34.4534L445.213 37.8667L448.387 41.3735L451.533 44.8667L457.293 51.4933L456.84 51.36L446.907 48.2133L436.44 44.9735L425.48 41.6933L414.08 38.4402L402.333 35.2667L390.267 32.2266L377.96 29.4133L365.493 26.8534L352.88 24.6266L340.293 22.8133L333.893 22.0534L327.547 21.4266L321.24 20.9334L314.933 20.56L308.667 20.3467L302.427 20.2933L296.24 20.4001L290.08 20.68L284 21.1334L277.973 21.7868L272.013 22.6402L266.133 23.7068L260.347 24.9735L254.64 26.4933L249.053 28.2534L243.573 30.2402L238.2 32.5068L232.987 35.0402L227.907 37.8402L222.96 40.9467L218.227 44.3467L215.307 46.6933L213.973 46.1868L208.053 44.0534L202.013 42.0534L195.827 40.1868L183.512 36.9068L170.931 34.1467L158.403 31.9467L152.043 31.0133L145.783 30.2402L139.581 29.5868L133.433 29.0667L127.355 28.68L121.377 28.4402L115.492 28.3068L109.72 28.3201L104.088 28.48L98.5892 28.7467L93.2373 29.16L88.0719 29.7201L83.0719 30.4001L78.2533 31.2266L73.6559 32.2001L69.2533 33.3201L65.0559 34.6133L61.0959 36.0667L56.3493 38.1201L51.6093 40.4933L46.9506 43.1467L42.3732 46.0402L37.8892 49.2133L33.5546 52.6266L29.3612 56.2534L25.3333 60.1201L21.5279 64.1868L17.9333 68.4402L14.5852 72.9201L11.5399 77.56L8.78664 82.36L6.37323 87.36L4.35461 92.4933L2.72257 97.7735L1.54393 103.213L0.871924 108.72L0.69458 114.333L1.09588 120.027L2.06125 125.52Z" fill="#100F0D"/>
</svg>
