<svg width="382" height="260" viewBox="0 0 382 260" fill="none" xmlns="http://www.w3.org/2000/svg">
<path d="M314.28 90.3068L305.147 81.5468L295.68 73.0801L285.88 64.9467L275.787 57.1869L265.467 49.7868L254.92 42.8001L244.187 36.2535L233.333 30.1467L222.36 24.5202L211.333 19.4268L200.267 14.8401L189.187 10.8268L178.253 7.44011L172.667 5.93347L167.187 4.60014L161.747 3.44012L156.333 2.44012L150.947 1.61343L145.613 0.960175L140.307 0.480072L135.04 0.173431L129.84 0.0800781L124.693 0.160156L119.587 0.440125L114.573 0.920197L109.613 1.61343L104.72 2.50677L99.9333 3.64011L95.2266 4.97345L90.5867 6.54675L86.0799 8.36017L81.6799 10.3869L77.3867 12.6801L73.2399 15.2134L69.2266 17.9869L65.3333 21.0268L61.6266 24.2935L58.0666 27.8134L54.6799 31.6001L51.4799 35.6268L48.4533 39.8801L45.6266 44.4134L43 49.1734L40.56 54.1734L38.3333 59.4401L36.3066 64.9467L34.4933 70.6801L32.8933 76.6801L31.5186 82.9335L30.3506 89.4134L29.4079 96.1868L28.6974 103.2L28.2013 110.467L27.944 118.013L27.9253 125.813L28.0959 131.44L28.4906 136.947L29.0867 142.333L29.8587 147.627L30.8106 152.827L31.9213 157.907L33.1733 162.92L34.5466 167.84L36.0399 172.693L37.6399 177.467L39.32 182.2L41.0933 186.907L44.7333 196.08L48.5466 205.187L52.4 214.254L56.1867 223.347L59.2799 231.16L58.9066 230.8L56.4 228.254L55.2933 227.093L54.2666 226.013L53.3466 225.04L52.5333 224.173L51.8666 223.454L51.2399 222.773L44.8933 216.187L38.5466 210.04L32.3466 204.213L29.2959 201.347L26.2813 198.48L23.2906 195.56L20.32 192.573L17.3653 189.493L14.344 186.187C11.284 182.84 6.08269 182.613 2.73069 185.667C-0.61998 188.733 -0.854767 193.933 2.2079 197.28L5.35464 200.733L8.54931 204.067L11.7132 207.254L14.8533 210.32L17.9707 213.293L21.0546 216.2L27.1453 221.947L33.16 227.827L39.2799 234.227L39.7066 234.68L40.4 235.44L41.2399 236.347L42.2 237.373L43.2933 238.533L44.52 239.813L47.1466 242.507L50.0799 245.427L53.3066 248.48L59.76 254.013L66.8266 258.493L74.0266 259.693L80.2799 257.133L82.32 254.973L83.76 252.854L84.9466 250.68L86.0132 248.36L87 245.907L87.9333 243.333L88.8266 240.613L89.6799 237.773L90.4933 234.867L91.2799 231.88L92.0533 228.813L93.4266 222.84L94.6666 217.013L95.7066 211.693L96.16 209.227L96.5466 206.987L96.8933 205.013L97.1733 203.267L97.3867 201.813L97.5466 200.68L97.9466 197.613L98.3333 194.733L98.7066 191.987L99.0933 189.333L99.4666 186.8L99.8399 184.347L100.6 179.587L101.373 174.987L102.173 170.427L103.893 160.88L105.827 150.08L106.947 143.493L108.053 136.973C108.853 132.24 105.667 127.76 100.933 126.96C96.2133 126.16 91.72 129.347 90.92 134.08L89.8266 140.613L88.7333 147.093L86.8399 157.84L85.1333 167.4L84.32 172.08L83.5333 176.813L82.7733 181.693L82.3867 184.254L82 186.893L81.6266 189.627L81.2533 192.454L80.8666 195.427L80.4933 198.493L80.3733 199.387L80.1867 200.64L79.9466 202.24L79.6399 204.107L79.2799 206.227L78.8666 208.52L77.8933 213.654L76.7733 219.2L75.4799 224.947L72.2666 216.813L68.3867 207.533L64.5333 198.454L60.7867 189.52L57.2399 180.6L55.5867 176.24L54.0132 171.827L52.5333 167.387L51.16 162.947L49.9066 158.48L48.7733 153.96L47.7867 149.413L46.9333 144.813L46.2533 140.133L45.72 135.387L45.3733 130.56L45.2266 125.613V118.32L45.4666 111.333L45.92 104.654L46.56 98.2268L47.4132 92.1335L48.4533 86.3068L49.6666 80.7467L51.0666 75.4801L52.6399 70.4935L54.36 65.7467L56.2399 61.2935L58.2799 57.0801L60.4533 53.1068L62.7733 49.4001L65.2266 45.9202L67.8132 42.6535L70.5066 39.6401L73.3466 36.8268L76.3066 34.2001L79.3733 31.8001L82.5733 29.5869L85.8933 27.5468L89.32 25.7202L92.8799 24.0535L96.5466 22.5734L100.32 21.2801L104.227 20.1602L108.24 19.2134L112.347 18.4401L116.573 17.8401L120.907 17.4134L125.307 17.1602L129.827 17.0801L134.413 17.1602L139.08 17.4134L143.827 17.8268L148.653 18.4001L153.52 19.1467L158.467 20.0401L163.453 21.0935L168.493 22.3068L173.48 23.6401L183.84 26.8134L194.187 30.5335L204.6 34.8268L215.04 39.6134L225.427 44.9068L235.76 50.6801L245.987 56.8801L256.04 63.5068L265.893 70.5468L275.533 77.9202L284.88 85.6401L293.907 93.6935L302.587 102.013L310.867 110.587L318.747 119.467L322.44 123.88L326.053 128.4L329.547 132.973L332.907 137.573L336.12 142.213L339.2 146.88L342.133 151.587L344.907 156.293L347.52 161.04L349.987 165.8L352.28 170.56L354.4 175.347L356.36 180.12L358.12 184.893L359.707 189.68L361.12 194.454L362.333 199.2L363.347 203.947L364.187 208.68L364.813 213.373L365.227 218.067L365.453 222.733L365.467 227.347L365.24 232.147C365.04 236.68 368.547 240.52 373.08 240.733C377.613 240.933 381.467 237.427 381.667 232.893L381.907 227.707L381.893 222.32L381.64 216.947L381.16 211.56L380.44 206.16L379.507 200.8L378.36 195.44L376.987 190.08L375.413 184.747L373.653 179.44L371.693 174.147L369.547 168.893L367.227 163.654L364.72 158.44L362.053 153.28L359.213 148.147L356.227 143.054L353.08 138L349.787 132.987L346.347 128.013L342.773 123.107L339.067 118.24L335.227 113.44L331.2 108.627L323 99.3602L314.28 90.3068Z" fill="#100F0D"/>
</svg>
