<svg width="761" height="173" viewBox="0 0 761 173" fill="none" xmlns="http://www.w3.org/2000/svg">
<path d="M760.107 130.747L759.16 125.64L757.813 120.64L756.12 115.72L754.053 110.867L751.667 106.12L748.987 101.467L746.013 96.9066L742.76 92.44L739.293 88.08L735.56 83.7866L731.613 79.6267L727.48 75.5467L723.133 71.56L718.613 67.6933L713.947 63.9066L709.12 60.24L704.173 56.6933L699.093 53.2533L693.907 49.92L688.64 46.7066L683.28 43.6267L677.853 40.6667L672.307 37.8L661.333 32.5866L650.213 27.9066L639.267 23.8933L633.707 22.0667L628.28 20.44L622.933 18.9866L617.653 17.6933L612.453 16.5866L607.373 15.68L602.387 14.9467L597.52 14.4267L592.787 14.1066L588.187 14L583.72 14.12L579.44 14.48L572.853 15.32L566.507 16.3333L560.413 17.5066L554.533 18.84L548.853 20.32L543.413 21.9467L538.16 23.7066L533.08 25.6267L528.227 27.6533L523.533 29.8133L519 32.08L514.667 34.4666L510.467 36.9467L506.413 39.5333L502.52 42.2133L498.76 44.96L495.12 47.7866L491.547 50.7333L484.907 56.6133L478.573 62.7467L472.547 69.0133L466.733 75.3333L461.067 81.6933L455.467 88.0267L449.88 94.3066L444.24 100.48L438.427 106.52L432.427 112.387L426.16 118.013L419.493 123.427L412.44 128.573L404.893 133.387L396.653 137.907L389.16 141.493L381.56 144.627L373.867 147.32L366.107 149.627L358.293 151.493L350.387 152.96L342.427 154.067L334.413 154.787L326.32 155.133L318.16 155.147L309.973 154.813L301.72 154.133L293.427 153.16L285.093 151.853L276.72 150.253L268.32 148.373L259.92 146.213L251.48 143.787L243.027 141.107L234.587 138.2L226.133 135.04L217.68 131.68L209.267 128.107L200.853 124.347L192.467 120.413L184.107 116.307L175.787 112.027L167.507 107.627L159.28 103.093L151.133 98.44L143.027 93.6267L134.933 88.8267L127 83.8533L119.053 78.8933L111.28 73.8133L103.507 68.72L95.9066 63.5866L88.2932 58.44L80.9199 53.2933L73.5199 48.1467L66.3733 43.04L59.2133 37.9333L52.3066 32.9066L45.3733 27.8933L38.7333 23.0133L32.0932 18.1333L30.8667 17.2267L33.1066 17.3333L37.9199 17.64L43 18.0133L48.2667 18.44L53.6932 18.9333L59.2 19.4533L70.3466 20.5733L81.2799 21.7333L91.5733 22.8533L96.3733 23.3866L100.88 23.8667L105.027 24.2934L108.813 24.68L112.173 24.9866L114.973 25.2C119.76 25.5733 123.933 22.0134 124.307 17.2267C124.68 12.44 121.107 8.26668 116.333 7.89334L113.653 7.67999L110.467 7.39998L106.787 7.03996L102.693 6.61333L98.2266 6.14667L93.4266 5.63995L83.1199 4.53333L72.1066 3.38664L60.8533 2.29335L55.2133 1.78664L49.6799 1.33331L44.2667 0.919968L39.0266 0.573288L34 0.29335L29.24 0.106628L24.7599 -1.52588e-05H20.6133L16.9199 0.11998L15.0667 0.226685L13.3733 0.386642L11.7599 0.586639L10.1866 0.853302L8.61328 1.21333L5.25325 2.59999L1.34661 6.74666L0 11.76L0.0265625 15.2L0.226562 17.0267L0.453255 18.4533L0.693229 19.6933L0.919922 20.7467L1.10664 21.5467L1.31992 22.3733L3.38659 29.1866L5.54661 36.28L8.2 43.16L10.8 49.8933L13.6133 56.5333L16.3866 63.0533L19.1866 69.5333L21.8932 75.9467L24.4667 82.3467L26.8667 88.7467L29.0266 95.1733L30.9466 101.84C32.2133 106.2 36.7599 108.72 41.1199 107.467C45.4933 106.213 47.9999 101.653 46.7466 97.2933L44.7333 90.28L42.3733 83.2533L39.8266 76.4L37.1333 69.68L34.3733 63.08L31.5866 56.5733L28.8533 50.08L26.1733 43.7066L23.7199 37.24L21.7866 32.1066L21.8 32.12L28.4667 37.0133L35.1466 41.9066L42.1199 46.96L49.0932 52.0133L56.3066 57.16L63.5333 62.32L71.0133 67.52L78.4932 72.7333L86.2 77.9467L93.9199 83.1467L101.813 88.3066L109.72 93.48L117.813 98.5333L125.92 103.6L134.187 108.507L142.44 113.4L150.827 118.173L159.28 122.84L167.787 127.36L176.36 131.747L184.987 135.987L193.653 140.053L202.373 143.947L211.147 147.64L219.933 151.133L228.76 154.413L237.627 157.467L246.507 160.253L255.4 162.8L264.32 165.08L273.24 167.067L282.173 168.76L291.107 170.147L300.027 171.187L308.933 171.907L317.84 172.253L326.707 172.227L335.547 171.827L344.373 171.027L353.133 169.787L361.853 168.16L370.533 166.053L379.12 163.493L387.627 160.493L396.08 156.987L404.44 152.973L413.52 147.96L421.987 142.533L429.813 136.813L437.133 130.853L443.973 124.68L450.4 118.387L456.52 112L462.387 105.573L468.067 99.1733L473.64 92.8267L479.187 86.5866L484.76 80.48L490.44 74.56L496.293 68.88L502.48 63.3733L505.573 60.8267L508.827 58.2933L512.187 55.8267L515.64 53.44L519.213 51.1467L522.933 48.9467L526.773 46.8267L530.76 44.8133L534.92 42.8933L539.24 41.08L543.733 39.3733L548.453 37.7866L553.347 36.3066L558.467 34.96L563.813 33.7467L569.4 32.6667L575.213 31.7333L581.293 30.9467L584.627 30.6533L588.2 30.56L592.04 30.6533L596.067 30.92L600.293 31.3733L604.72 32.0133L609.28 32.8267L613.973 33.8267L618.813 35L623.747 36.3333L628.76 37.84L633.76 39.48L644.173 43.28L654.587 47.6533L665.067 52.6267L670.133 55.24L675.213 58L680.24 60.8933L685.187 63.8933L690.027 66.9866L694.747 70.2L699.347 73.4933L703.8 76.8666L708.08 80.3467L712.213 83.88L716.133 87.48L719.853 91.1467L723.373 94.8666L726.64 98.6133L729.68 102.413L732.467 106.24L734.96 110.08L737.187 113.933L739.133 117.8L740.76 121.627L742.093 125.48L743.12 129.307L743.827 133.08L744.213 136.88L744.293 140.667L744.026 144.413L743.4 148.213L742.427 152.027L741.08 155.853L739.16 160.04C737.267 164.173 739.08 169.04 743.213 170.933C747.347 172.827 752.213 171.013 754.107 166.88L756.32 162.027L758.16 156.8L759.493 151.573L760.36 146.347L760.733 141.08L760.627 135.893L760.107 130.747Z" fill="#100F0D"/>
</svg>
