<svg width="331" height="153" viewBox="0 0 331 153" fill="none" xmlns="http://www.w3.org/2000/svg">
<path d="M119.227 6.21333L108.987 4.50668L99.0266 3.37335L96.3333 3.1201L93.3466 2.84003L89.9733 2.5201L86.2799 2.17336L82.2666 1.84003L77.96 1.50668L68.92 0.960068L59.2666 0.653427L49.52 0.746658L44.52 0.960068L39.6399 1.33339L34.8799 1.86671L30.2132 2.60005L25.6666 3.54666L21.3333 4.76007L17.16 6.25343L13.1733 8.14667L9.7333 10.3067L7.78668 11.8L6.14658 13.3067L4.63994 14.9467L3.27991 16.7467L2.06663 18.7201L1.22665 20.44C-0.720012 24.5334 1.01327 29.44 5.1066 31.4C9.19993 33.3601 14.1066 31.6134 16.0666 27.5201L16.5066 26.5868L16.8267 26.0667L17.2533 25.5067L17.7867 24.9334L18.4 24.3601L18.9466 23.9334L21.0666 22.5868L23.4267 21.4667L26.2933 20.44L29.56 19.5334L33.1466 18.7868L37.0533 18.1868L41.1867 17.7201L45.4933 17.4001L49.8533 17.2133L59.0666 17.1467L68.1466 17.4534L76.8666 18L80.9333 18.3201L84.8132 18.6534L88.4266 18.9868L91.7733 19.3067L94.7733 19.6133L97.2132 19.84L106.653 20.9201L116.04 22.5467L125.573 24.6667L135.187 27.2534L144.853 30.2934L154.573 33.8133L164.293 37.7067L173.973 42.0133L183.613 46.7067L193.173 51.7334L202.627 57.0934L211.933 62.7868L221.093 68.7467L230.04 74.9601L238.773 81.44L247.267 88.1201L255.48 94.9868L263.4 102.053L271 109.24L278.227 116.56L285.053 123.987L291.507 131.493L294.68 135.48L292.28 135.307L287.667 134.92L282.88 134.48L278 133.973L268.053 132.893L258.36 131.76L249.36 130.68L245.227 130.173L241.413 129.72L237.987 129.32L234.933 128.973L232.333 128.72L230.333 128.547C225.56 128.16 221.373 131.72 220.973 136.493C220.587 141.28 224.147 145.467 228.933 145.853L230.747 146L233.107 146.24L236.027 146.56L239.387 146.947L243.173 147.387L247.307 147.88L256.347 148.947L266.16 150.067L276.227 151.093L281.28 151.573L286.227 151.987L291.027 152.347L295.667 152.64L300.08 152.84L304.213 152.947L308.053 152.96L311.613 152.827L314.68 152.56L316.373 152.307L317.92 152L319.467 151.56L321.133 150.893L323.053 149.773L325.733 146.92L328.667 141.413L330.187 134.64L330.467 128.413L330.36 125.147L330.173 122.213L329.933 119.467L329.707 116.92L329.52 114.653L329.413 112.787L329.333 106.907L329.36 100.307L329.213 93.3467L329.013 89.6267L328.68 85.9601L328.147 82.3067L327.413 78.68L326.36 75.08L325.133 72.0001C323.44 67.7867 318.653 65.7467 314.44 67.44C310.227 69.1467 308.187 73.9333 309.88 78.1467L310.813 80.4133L311.427 82.5868L311.933 85.1067L312.333 87.8667L312.6 90.8133L312.76 93.84L312.867 100.413L312.827 106.947L312.867 113.133L313 115.733L313.187 118.307L313.413 120.867L313.613 123.413L313.76 125.907L313.813 128.08L313.653 131.72L311.307 128.507L304.867 120.427L298 112.453L290.747 104.6L283.107 96.8667L275.093 89.3067L266.773 81.9067L258.133 74.6934L249.213 67.7201L240.053 60.9734L230.64 54.48L221.04 48.28L211.267 42.3601L201.32 36.7734L191.253 31.5334L181.08 26.64L170.827 22.1467L160.52 18.0667L150.187 14.3868L139.84 11.1734L129.52 8.46672L119.227 6.21333Z" fill="#100F0D"/>
</svg>
