<svg width="338" height="469" viewBox="0 0 338 469" fill="none" xmlns="http://www.w3.org/2000/svg">
<path d="M236.228 153.534L235.629 156.787L234.881 160.054L233.996 163.32L232.961 166.574L231.763 169.827L230.419 173.08L228.917 176.307L227.239 179.547L225.405 182.773L223.403 185.987L221.217 189.187L219.98 190.813L218.612 192.36L217.077 193.894L215.407 195.387L213.609 196.8L211.66 198.174L209.591 199.494L207.413 200.72L205.108 201.894L202.707 203L200.223 204.027L197.776 204.907L192.263 206.6L186.679 207.867L180.915 208.747L175.076 209.267L169.26 209.387L163.495 209.08L157.867 208.413L152.496 207.334L147.401 205.84L142.652 204L138.376 201.787L134.353 199.054L132.82 197.787L131.245 196.32L129.788 194.747L128.456 193.094L127.277 191.374L126.223 189.534L125.291 187.6L124.516 185.587L123.875 183.4L123.376 181.107L123.047 178.68L122.891 176.134L122.92 172.16L123.247 168.6L123.849 165.32L124.673 162.28L125.72 159.534L127 156.974L128.475 154.613L130.141 152.44L132.052 150.413L134.165 148.52L136.48 146.787L139.049 145.187L141.823 143.707L144.791 142.387L147.991 141.214L151.372 140.174L154.917 139.293L158.648 138.56L162.523 137.974L166.517 137.56L170.649 137.28L174.88 137.147L179.189 137.16L183.584 137.32L188.033 137.6L192.517 138.027L197.041 138.587L201.577 139.254L206.103 140.054L210.527 140.947L219.565 143.107L228.251 145.64L236.588 148.547L236.808 148.627L236.664 150.413L236.228 153.534ZM14.92 57.5601L17.7333 54.0536L20.516 50.8536L23.3666 47.8002L26.2693 44.907L29.216 42.1869L32.2253 39.6268L35.2813 37.2002L38.3733 34.9335L41.5253 32.8268L44.716 30.8403L47.9373 29.0135L51.2133 27.3336L54.5253 25.7737L57.86 24.3601L61.2453 23.0802L64.6613 21.9203L68.096 20.907L71.4413 20.0403L78.6093 18.5869L85.7133 17.6536L92.9213 17.2135H100.184L107.463 17.6802L114.779 18.5869L122.092 19.907L129.357 21.6403L136.587 23.7869L143.749 26.2802L150.795 29.1601L157.731 32.4135L164.535 35.9601L171.152 39.8403L177.587 44.0403L183.824 48.507L189.805 53.2268L195.533 58.2268L201 63.4403L206.141 68.8536L210.963 74.4802L215.463 80.2802L219.572 86.2135L223.297 92.307L226.644 98.507L229.547 104.8L232.003 111.187L234.033 117.64L235.568 124.107L236.572 130.413L233.451 129.334L223.935 126.56L214.288 124.28L209.263 123.267L204.296 122.4L199.324 121.667L194.349 121.067L189.371 120.6L184.427 120.293L179.509 120.12L174.621 120.107L169.804 120.28L165.043 120.6L160.341 121.107L155.745 121.813L151.239 122.693L146.821 123.787L142.547 125.107L138.396 126.654L134.371 128.454L130.539 130.493L126.876 132.8L123.401 135.413L120.192 138.307L117.228 141.467L114.54 144.96L112.209 148.72L110.207 152.747L108.569 157.067L107.341 161.6L106.484 166.347L106.032 171.347L105.993 176.48L106.232 180.334L106.741 184.04L107.516 187.587L108.527 191L109.8 194.294L111.297 197.413L113.001 200.36L114.933 203.174L117.039 205.773L119.304 208.213L121.749 210.494L124.517 212.734L129.8 216.28L135.749 219.347L142 221.774L148.493 223.667L155.231 225.013L162.083 225.827L169.013 226.16L176.007 226.013L182.948 225.387L189.811 224.32L196.563 222.787L202.945 220.827L206.261 219.627L209.38 218.347L212.405 216.947L215.352 215.44L218.219 213.8L220.964 212.054L223.608 210.174L226.147 208.16L228.532 206.04L230.787 203.787L232.9 201.374L234.813 198.854L237.369 195.094L239.729 191.307L241.889 187.48L243.871 183.64L245.669 179.76L247.272 175.867L248.703 171.96L249.952 168.013L251.016 164.08L251.913 160.134L252.635 156.16L252.7 155.68L258.472 158.893L261.349 160.68L264.108 162.56L266.636 164.454L268.924 166.347L270.921 168.2L272.66 170.04L276.092 174.013L279.432 178.147L282.676 182.413L285.821 186.8L288.848 191.294L291.767 195.92L294.575 200.627L297.253 205.413L299.805 210.307L302.239 215.28L304.531 220.307L306.685 225.413L308.708 230.574L310.579 235.774L312.299 241.027L313.877 246.307L315.293 251.613L316.549 256.947L317.652 262.294L318.581 267.64L319.337 272.987L319.933 278.32L320.345 283.64L320.575 288.934L320.635 294.2L320.504 299.427L320.179 304.613L319.679 309.747L318.98 314.8L318.079 319.813L316.992 324.747L315.701 329.6L314.197 334.374L312.504 339.067L310.6 343.64L308.472 348.134L306.14 352.534L303.596 356.8L300.807 360.974L297.809 365.027L294.584 368.947L291.103 372.747L287.392 376.427L283.443 379.947L279.211 383.347L274.737 386.6L270.004 389.68L264.88 392.667L260.133 395.294L255.623 397.734L251.333 399.934L247.169 401.894L243.039 403.587L238.76 405.04L234.241 406.28L229.343 407.254L223.733 407.987L220.883 408.24L217.739 408.427L214.383 408.534L210.828 408.56L209.169 408.547L210.471 407.013L212.948 404.2L215.635 401.227L218.471 398.134L221.431 394.947L224.484 391.68L230.685 385.013L236.801 378.267L242.476 371.707L245.184 368.413L247.665 365.227L249.92 362.12L251.955 359.067L253.729 356L255.005 353.334C257.055 349 255.2 343.827 250.864 341.773C246.528 339.72 241.353 341.574 239.305 345.92L238.385 347.894L237.229 349.88L235.673 352.227L233.805 354.813L231.645 357.6L229.273 360.494L223.843 366.813L217.936 373.347L211.837 379.987L208.803 383.28L205.817 386.547L202.925 389.747L200.143 392.867L197.516 395.907L195.081 398.84L192.837 401.654L190.82 404.387L189.069 407.027L187.556 409.694L186.323 412.613L185.589 416.254L185.88 420.387L187.212 424.24L189.112 427.454L191.371 430.307L193.973 432.973L196.995 435.6L203.195 440.213L210.363 444.774L217.88 449.08L221.777 451.187L225.603 453.2L229.361 455.12L233.021 456.96L236.527 458.694L239.823 460.307L242.889 461.813L245.649 463.173L248.043 464.36L250.037 465.387L251.489 466.187L252.517 466.813C256.391 469.187 261.452 467.974 263.823 464.094C266.193 460.227 264.977 455.16 261.107 452.8L259.676 451.92L257.731 450.854L255.488 449.694L252.965 448.427L250.145 447.04L247.079 445.534L243.817 443.934L240.389 442.227L236.84 440.427L233.224 438.56L229.583 436.627L226.021 434.68L218.969 430.6L212.68 426.52L211.881 425.92L214.743 425.894L218.529 425.76L222.157 425.547L225.739 425.227L232.148 424.387L238.209 423.174L243.828 421.64L249.123 419.84L254.159 417.774L258.987 415.507L263.72 413.08L268.469 410.494L273.456 407.734L279.107 404.44L284.573 400.867L289.737 397.107L294.636 393.174L299.265 389.04L303.596 384.747L307.667 380.307L311.468 375.68L314.979 370.934L318.237 366.054L321.232 361.027L323.949 355.894L326.424 350.68L328.644 345.334L330.6 339.907L332.327 334.413L333.809 328.827L335.047 323.2L336.069 317.52L336.86 311.76L337.424 305.987L337.784 300.174L337.929 294.32L337.86 288.454L337.604 282.587L337.144 276.694L336.487 270.813L335.653 264.934L334.629 259.067L333.423 253.227L332.052 247.4L330.5 241.6L328.781 235.854L326.908 230.16L324.865 224.494L322.667 218.894L320.327 213.374L317.829 207.894L315.187 202.52L312.412 197.213L309.488 192L306.436 186.894L303.257 181.88L299.944 176.974L296.509 172.2L292.959 167.534L289.281 163L285.48 158.6L282.984 155.974L280.217 153.413L277.244 150.96L274.083 148.587L270.704 146.293L267.028 144.013L259.573 139.893L253.752 137.147L253.747 136.413L253.065 128.6L251.831 120.88L250.008 113.227L247.64 105.72L244.799 98.3468L241.451 91.107L237.644 84.0536L233.435 77.1869L228.795 70.4802L223.773 64.0268L218.413 57.7737L212.692 51.7601L206.659 46.0135L200.349 40.5203L193.744 35.307L186.893 30.4135L179.825 25.8135L172.523 21.5335L165.04 17.6268L157.397 14.0669L149.58 10.8802L141.645 8.10699L133.608 5.73355L125.456 3.78693L117.253 2.32028L109.004 1.29346L100.701 0.760101L92.4186 0.773651L84.152 1.26688L75.9013 2.34683L67.8853 3.97366L63.7067 5.04031L59.676 6.24033L55.6906 7.60022L51.74 9.09344L47.812 10.7601L43.9427 12.5736L40.1147 14.5468L36.3253 16.6935L32.6013 19.0002L28.9347 21.4669L25.3146 24.107L21.7733 26.9203L18.296 29.8934L14.88 33.0403L11.5507 36.3601L8.29465 39.8536L5.11064 43.5203L2.10666 47.2536C-0.738677 50.8003 -0.176022 55.9735 3.36131 58.8135C6.89998 61.6668 12.076 61.0934 14.92 57.5601Z" fill="#100F0D"/>
</svg>
