<svg width="704" height="253" viewBox="0 0 704 253" fill="none" xmlns="http://www.w3.org/2000/svg">
<path d="M8.02679 223.16C12.5735 223.347 16.3867 219.813 16.5734 215.28L16.7467 210.827L17.0935 206.573L17.6001 202.36L18.2535 198.187L19.08 194.067L20.0535 189.96L21.1601 185.893L22.4268 181.88L23.8268 177.893L25.3734 173.947L27.0401 170.04L28.7868 166.267L32.8134 158.52L37.2535 151.053L42.1601 143.747L47.4535 136.573L53.1202 129.613L59.1467 122.813L65.4668 116.187L72.0401 109.76L78.8668 103.533L85.8801 97.4933L93.0535 91.6667L100.36 86.0535L107.733 80.6402L115.16 75.4402L122.6 70.48L130.027 65.7201L137.373 61.2001L144.613 56.9201L150.48 53.6001L156.347 50.4402L162.253 47.4266L168.187 44.5735L174.12 41.8667L180.08 39.3068L186.067 36.8933L192.053 34.6266L198.067 32.5068L204.093 30.5334L210.12 28.6933L216.133 27.0133L222.253 25.4933L228.267 24.0133L240.493 21.5467L252.72 19.6534L264.96 18.2402L277.213 17.3467L289.493 16.9735L301.787 17.0535L314.053 17.6133L326.32 18.6667L338.573 20.1467L350.787 22.08L362.973 24.4534L375.12 27.2266L387.213 30.4266L399.28 34.0535L405.227 36.0266L411.2 38.0266L417.133 40.2001L423.08 42.3868L428.96 44.76L434.867 47.1467L440.72 49.68L446.574 52.2266L452.36 54.9467L458.16 57.6667L463.893 60.56L469.64 63.4534L475.32 66.5068L481 69.5467L486.6 72.7599L492.213 75.96L497.747 79.3334L503.293 82.6933L508.76 86.2001L514.227 89.7068L519.613 93.3467L524.987 96.9868L530.293 100.773L535.6 104.547L540.813 108.453L546.027 112.36L551.147 116.387L556.267 120.413L561.28 124.56L566.307 128.72L571.24 132.973L576.16 137.227L580.974 141.587L585.787 145.947L590.48 150.413L595.187 154.88L599.787 159.44L604.374 164L608.84 168.64L613.307 173.28L617.654 178.013L621.987 182.747L626.213 187.56L630.427 192.36L634.52 197.227L638.574 202.08L646.48 211.987L654.093 221.987L661.413 232.093L661.64 232.427L658.813 231.147L652.933 228.56L650.053 227.187L647.027 225.733L643.974 224.307L640.933 222.907L637.893 221.587L634.867 220.36L631.853 219.253L628.813 218.307L625.8 217.573L622.72 217.08L619.493 216.947L616.893 217.2C612.373 217.68 609.107 221.72 609.574 226.24C610.054 230.747 614.107 234.027 618.627 233.547L619.92 233.387L620.987 233.44L622.52 233.693L624.4 234.16L626.547 234.827L628.933 235.707L631.493 236.747L634.2 237.933L637.027 239.24L639.947 240.613L642.933 242.053L646.08 243.573L652.08 246.253L658.72 249.187L669.813 252.373L673.413 252.573L673.547 252.547L673.8 252.507L674.187 252.44L674.707 252.36L675.36 252.267L676.133 252.133L677.04 251.987L678.08 251.827L679.013 251.68L679.827 251.533L680.533 251.413L681.147 251.307L681.693 251.2L682.28 251.067L683.6 250.64L686.933 248.12L686.947 248.107L686.96 248.08L686.974 248.067L686.987 248.053L687 248.04L688.227 245.947L688.587 245.027L688.96 243.8L689.253 242.6L689.547 241.28L689.827 239.827L690.12 238.227L690.413 236.467L690.733 234.547L691.053 232.493L691.387 230.28L691.72 227.92L692.427 222.893L693.16 217.413L693.92 211.56L694.707 205.44L695.493 199.12L696.267 192.667L697.04 186.187L697.813 179.707L699.253 167.187L700.547 155.813L701.133 150.693L701.654 146.107L702.12 142.12L702.333 140.373L702.52 138.813L702.693 137.44L702.84 136.28L702.96 135.347L703.067 134.613C703.733 129.867 700.413 125.48 695.667 124.813C690.92 124.147 686.533 127.453 685.867 132.2L685.747 133.027L685.613 134.08L685.453 135.32L685.28 136.733L685.093 138.347L684.893 140.12L684.427 144.133L683.907 148.747L683.333 153.867L682.067 165.24L680.667 177.747L679.947 184.213L679.213 190.68L678.48 197.093L677.76 203.387L677.04 209.467L676.333 215.267L675.667 220.68L675.493 221.947L668.027 211.64L660.16 201.32L652.04 191.147L647.8 186.093L643.587 181.067L639.24 176.107L634.88 171.16L630.413 166.293L625.933 161.413L621.32 156.627L616.707 151.84L611.974 147.147L607.24 142.453L602.4 137.867L597.56 133.253L592.587 128.76L587.627 124.267L582.547 119.88L577.467 115.507L572.293 111.227L567.12 106.947L561.84 102.8L556.547 98.6402L551.16 94.6133L545.787 90.6001L540.32 86.7068L534.84 82.8001L529.28 79.0402L523.707 75.28L518.053 71.68L512.4 68.0667L506.68 64.6001L500.947 61.1334L495.133 57.8133L489.32 54.5068L483.427 51.36L477.56 48.2133L471.613 45.2266L465.653 42.2402L459.64 39.4133L453.627 36.6001L447.547 33.9735L441.467 31.3467L435.347 28.88L429.213 26.4266L423.027 24.16L416.827 21.8933L410.6 19.8402L404.333 17.76L391.813 14.0402L379.173 10.7201L366.48 7.84016L353.72 5.3735L340.893 3.3735L328.027 1.85345L315.147 0.773499L302.213 0.200058L289.267 0.146683L276.333 0.573502L263.373 1.5334L250.453 3.05345L237.547 5.08002L224.72 7.68001L218.24 9.29329L211.867 10.88L205.44 12.6933L199.04 14.6534L192.68 16.76L186.333 19.0134L180 21.4133L173.693 23.9868L167.4 26.6933L161.12 29.56L154.88 32.5868L148.667 35.76L142.453 39.1068L136.293 42.6001L128.813 47.0266L121.213 51.7201L113.547 56.6402L105.84 61.8001L98.1067 67.2133L90.4268 72.8534L82.8134 78.7201L75.2935 84.8402L67.9334 91.2001L60.7334 97.7735L53.7467 104.613L47.0268 111.667L40.5734 118.947L34.4401 126.493L28.7067 134.267L23.3467 142.253L18.4268 150.52L14.08 158.907L12.0134 163.333L10.1334 167.733L8.4001 172.187L6.81338 176.68L5.38682 181.267L4.12015 185.88L3.0001 190.56L2.06677 195.307L1.30674 200.093L0.720154 204.933L0.333436 209.84L0.146717 214.627C-0.0399497 219.16 3.49346 222.987 8.02679 223.16Z" fill="#100F0D"/>
</svg>
