<svg width="161" height="318" viewBox="0 0 161 318" fill="none" xmlns="http://www.w3.org/2000/svg">
<path d="M17.0799 9.52011L17.0533 9.95996L16.9732 10.4933L16.9066 10.8134C17.0532 9.96002 17.1732 9.08017 17.0399 8.17349L17.0533 8.21335L17.0666 8.38678L17.0799 8.61334L17.0933 8.85345V9.15994L17.0799 9.52011ZM109.267 292.32L106.72 290.453L104.013 288.36L101.133 286.08L98.1066 283.573L94.9333 280.88L93.1333 279.267L91.3333 277.493L89.4666 275.533L87.5066 273.44L85.4666 271.24L83.2266 268.893L78.5732 264.453L72.9999 260.227L67.2933 257.307C63 255.16 57.7866 256.893 55.6399 261.187C53.4799 265.467 55.2132 270.68 59.5066 272.84L63.8132 274.947L67.3066 277.627L71.0666 281.227L72.8799 283.133L74.8533 285.24L76.8933 287.427L79.0266 289.64L81.2933 291.867L83.6533 293.973L87.1066 296.853L90.3732 299.493L93.4799 301.92L96.4666 304.187L99.3465 306.267L102.08 308.147L104.733 309.853L107.28 311.413L109.747 312.773L112.133 313.987L114.48 315.053L116.773 315.92L119.053 316.64L121.347 317.187L123.6 317.507L125.88 317.64L128.2 317.507L130.907 317L134.667 315.587L138.36 313.093L141.24 310.08L143.52 306.787L145.387 303.213L146.96 299.453L148.373 295.52L149.68 291.333L150.96 286.947L152.253 282.373L153.6 277.613L155.053 272.667L156.64 267.613L158.4 262.427L160.44 257.013C162.04 252.76 159.893 248.027 155.64 246.427C151.387 244.827 146.653 246.973 145.053 251.227L142.92 256.867L141 262.48L139.307 267.853L137.773 273L136.373 277.84L135.08 282.347L133.853 286.507L132.667 290.213L131.48 293.427L131.333 293.773L129.453 288.92L126.333 280.827L123.213 272.733L120.133 264.76L117.267 256.667L114.36 248.467L111.453 240.253L108.547 232.08L105.707 223.867L102.84 215.64L99.96 207.4L97.0933 199.147L94.16 190.907L91.2266 182.64L88.1999 174.427L85.1732 166.187L82.0132 158.013L78.8666 149.84L75.5866 141.68L72.2132 133.56L68.7465 125.48L65.1732 117.44L61.4666 109.453L57.7066 101.653L52.9999 91.44L48.8399 81.1067L44.9465 70.5201L41.1066 59.7601L37.1732 48.8667L32.9465 38.0133L31.8533 35.4534L30.4399 32.3868L28.7465 28.8667L26.8933 25.0534L24.92 21.1068L22.9465 17.2266L21.9732 15.3334L21.0266 13.5334L20.1333 11.8401L19.2933 10.2667L18.5066 8.82663L17.7732 7.53339L17.12 6.40005L16.4933 5.3735L15.9999 4.64017L15.3867 3.86673V3.85345L15.3732 3.84015L15.36 3.82663L15.3465 3.81335L15.3333 3.80005V3.78677L15.32 3.7735L15.3066 3.75995L15.2933 3.74667L15.2799 3.7334L15.2132 3.66672L15.1066 3.54666L14.9867 3.41333L14.8533 3.26672L14.6933 3.12012L14.5066 2.94669L14.2933 2.75995L14.0266 2.54666L13.72 2.3201L13.3465 2.06671L12.8799 1.80005L12.2933 1.50684L11.56 1.21335L10.6132 0.959961L9.45332 0.813354L8.0666 0.82663L7.35996 0.946686H7.34655H7.33327H7.31999H7.30658H7.29329L7.2666 0.959961H7.25332L6.45332 1.15994L4.79993 1.89328L3.38665 2.9201L2.33327 4.06671L1.62663 5.15994L1.19993 6.13339L0.933268 6.94669L0.786654 7.61334L0.706576 8.17349L0.666602 8.64017L0.65332 9.02661L0.666602 9.35995V9.64017L0.693294 9.89328L0.719987 10.1068L0.733268 10.3068L0.759961 10.4133V10.4266V10.4534V10.4667V10.48L0.773242 10.4933V10.5068V10.5201V10.5334V10.5467V10.56V10.5735C1.03991 12.3068 1.93332 13.7335 3.05332 14.9201L3.49329 15.6667L4.10658 16.7735L4.82663 18.08L5.61322 19.56L6.4666 21.1735L7.35996 22.9068L8.29329 24.7068L10.2266 28.5067L12.1333 32.3467L13.9333 36.0268L15.5465 39.4001L16.8266 42.1868L17.6399 44.0667L21.7333 54.64L25.56 65.3201L29.3867 76.1334L33.3867 87.04L37.7465 97.9734L42.6132 108.707L46.36 116.547L49.9066 124.32L53.3465 132.173L56.6933 140.067L59.9465 148.013L63.1066 156L66.1732 164.08L69.2399 172.147L72.1867 180.28L75.1333 188.427L77.9999 196.613L80.8799 204.813L83.7066 213.027L86.5465 221.28L89.3867 229.52L92.2399 237.787L95.1465 246.027L98.0399 254.227L100.947 262.44L103.88 270.76L107.04 278.973L110.147 287.067L113.213 295.04L111.653 293.987L109.267 292.32Z" fill="#100F0D"/>
</svg>
