<svg width="296" height="343" viewBox="0 0 296 343" fill="none" xmlns="http://www.w3.org/2000/svg">
<path d="M240.813 318.253L242.347 314.413L244.733 307.013L246.613 299.093L247.974 291.053L248.96 283L249.613 275.053L249.974 267.467L250.08 263.733L250.147 260.187L250.174 256.787L250.16 253.547L250.133 250.493L250.093 247.56L249.76 236.867L249.053 226.133L247.987 215.507L246.56 204.947L244.76 194.493L242.587 184.16L240.053 173.947L237.12 163.867L233.813 153.96L230.133 144.2L226.053 134.613L221.56 125.227L216.707 116.04L211.427 107.067L205.733 98.3334L199.667 89.8402L193.173 81.5868L186.253 73.6402L178.947 65.9467L171.213 58.5467L163.04 51.48L154.48 44.7202L145.48 38.3069L136.147 32.3069L131.933 29.76L127.547 27.2134L122.933 24.6535L118.12 22.0668L113.093 19.5201L107.893 17.0134L102.547 14.5735L97.04 12.2535L91.4268 10.0535L85.7067 8.01337L79.88 6.16L73.9868 4.52014L68.0535 3.12015L62.04 2.00009L56.04 1.18683L50.0134 0.706879L43.9734 0.600098L37.9734 0.920135L32.0268 1.66675L26.1201 2.92014L20.5334 4.65347L17.5334 5.80011L14.7201 7.05347L11.9868 8.45349L9.28002 9.98682L6.62677 11.6933L4.21336 13.4402C0.533356 16.0935 -0.293233 21.2269 2.3601 24.9069C5.02677 28.5869 10.16 29.4267 13.84 26.76L15.8934 25.2801L17.8134 24.0535L19.7868 22.9334L21.8001 21.9069L23.84 21.0001L25.7734 20.2535L30.28 18.8402L34.7601 17.8933L39.44 17.3069L44.2535 17.0535L49.2001 17.1467L54.2667 17.56L59.4268 18.2535L64.6268 19.2267L69.8934 20.48L75.1601 21.9467L80.4134 23.6266L85.64 25.5069L90.8133 27.5334L95.8934 29.6933L100.88 31.9735L105.747 34.3334L110.453 36.7334L114.987 39.1735L119.347 41.6134L123.493 44.0267L127.293 46.3202L136.147 52.0402L144.467 58.0134L152.387 64.3202L159.947 70.8933L167.067 77.76L173.813 84.9069L180.187 92.2933L186.173 99.9334L191.773 107.84L197.013 115.96L201.88 124.293L206.36 132.853L210.507 141.6L214.28 150.533L217.693 159.667L220.76 168.947L223.467 178.387L225.827 187.973L227.853 197.707L229.52 207.547L230.84 217.507L231.84 227.56L232.493 237.693L232.813 248.027L232.84 250.68L232.867 253.613V256.72L232.84 259.96L232.773 263.32L232.68 266.733L232.32 273.933L231.733 281.24L230.827 288.533L229.613 295.64L228.027 302.347L225.973 308.68L225.267 310.427L224.48 307.267L223.52 303.333L222.533 299.293L220.52 291.107L218.453 283.053L216.427 275.573L215.427 272.04L214.44 268.773L213.48 265.813L212.52 263.093L211.52 260.64L210.613 258.773C208.493 254.48 203.293 252.707 198.987 254.827C194.693 256.947 192.92 262.147 195.04 266.453L195.653 267.667L196.28 269.227L197.053 271.387L197.893 273.973L198.8 276.933L199.733 280.187L201.72 287.467L203.773 295.36L205.827 303.467L206.84 307.48L207.84 311.413L208.813 315.227L209.747 318.867L210.667 322.307L211.52 325.48L212.347 328.373L213.12 330.96L213.84 333.147L214.24 334.253L214.627 335.24L215.067 336.227L215.627 337.307L216.627 338.76L219.76 341.227L222.613 342.32L226.04 342.84L229.2 342.773L232.28 342.387L235.413 341.72L238.733 340.813L245.133 338.627L251.987 335.867L258.907 332.8L262.413 331.2L265.813 329.587L269.133 328.013L272.347 326.453L275.413 324.987L278.307 323.6L280.987 322.333L283.413 321.227L285.547 320.28L287.32 319.547L288.6 319.08L289.627 318.8C293.987 317.56 296.52 313.013 295.28 308.64C294.04 304.28 289.493 301.747 285.133 302.973L283.453 303.467L281.333 304.227L279.093 305.16L276.667 306.213L274.053 307.413L271.253 308.733L268.307 310.133L265.227 311.6L262.04 313.12L258.773 314.653L255.467 316.2L252.187 317.68L245.587 320.56L239.387 322.987L238.267 323.347L239.12 321.813L240.813 318.253Z" fill="#100F0D"/>
</svg>
