<svg width="744" height="457" viewBox="0 0 744 457" fill="none" xmlns="http://www.w3.org/2000/svg">
<path d="M728.64 276.96L726.64 279.227L724.893 281.2L723.4 282.88L722.107 284.333L721.013 285.56L720.08 286.573L719.293 287.427L718.626 288.107L718.04 288.667L717.493 289.16L716.96 289.627L716.413 290.067L715.667 290.627L718.04 285.053L720.573 277.693L722.747 270.027L724.533 262.027L725.973 253.747L727.107 245.213L727.907 236.44L728.413 227.467L728.667 218.32L728.64 209L728.36 199.547L727.853 190.013L727.12 180.373L726.173 170.707L725.053 161.013L723.733 151.32L722.24 141.667L720.6 132.067L718.813 122.547L716.893 113.16L714.853 103.907L712.72 94.8268L710.467 85.9467L708.16 77.2934L705.76 68.8934L703.307 60.7868L700.813 52.9734L698.28 45.4934L695.733 38.4134L693.173 31.68L690.6 25.3734L688.026 19.5201L685.48 14.0934L682.933 9.14667L680.507 4.88C678.253 0.946686 673.24 -0.426666 669.293 1.81335C665.346 4.06668 663.973 9.09341 666.227 13.0268L668.467 16.9601L670.72 21.3467L673.053 26.3067L675.44 31.7601L677.867 37.7067L680.307 44.1201L682.76 50.9201L685.187 58.1067L687.6 65.6667L689.973 73.5201L692.293 81.6667L694.547 90.0934L696.733 98.7201L698.813 107.56L700.787 116.573L702.667 125.72L704.4 134.96L705.987 144.293L707.44 153.68L708.707 163.067L709.8 172.453L710.707 181.8L711.413 191.067L711.88 200.227L712.147 209.267L712.173 218.12L711.933 226.773L711.453 235.213L710.693 243.373L709.64 251.253L708.333 258.813L706.72 265.973L704.8 272.76L702.6 279.147L700.093 285.027L697.2 290.587L695.773 292.987L694.187 295.36L692.533 297.627L690.8 299.773L689 301.773L687.12 303.64L685.173 305.4L683.147 307L681.026 308.48L678.826 309.853L676.547 311.067L674.147 312.16L671.64 313.133L669.053 313.96L666.307 314.667L663.453 315.227L660.493 315.627L657.36 315.88L654.093 315.987L650.693 315.92L647.133 315.68L643.427 315.267L639.587 314.667L635.653 313.893L633.026 313.187L630.467 312.227L627.826 310.947L625.12 309.387L622.387 307.533L619.587 305.387L616.76 302.973L613.907 300.307L611.026 297.387L608.12 294.253L605.2 290.907L602.267 287.36L599.307 283.653L596.347 279.8L593.373 275.8L590.373 271.693L587.347 267.48L584.32 263.187L578.173 254.427L571.92 245.533L565.52 236.693L558.973 227.987L552.213 219.56L545.293 211.68L541.613 207.813L537.933 204.173L534.16 200.72L530.307 197.453L526.333 194.387L522.253 191.573L518.067 189L513.72 186.707L509.267 184.747L504.693 183.093L499.947 181.813L495.107 180.947L490.147 180.48L485.067 180.467L479.933 180.933L474.733 181.853L469.453 183.267L464.133 185.2L457.24 188.24L450.613 191.707L444.32 195.547L438.307 199.707L432.573 204.213L427.147 209.027L421.987 214.093L417.067 219.44L412.413 225.013L407.973 230.8L403.76 236.8L399.76 242.973L395.947 249.28L392.307 255.76L388.853 262.36L385.547 269.053L382.373 275.867L379.333 282.76L376.48 289.68L373.613 296.613L370.947 303.64L368.28 310.627L365.76 317.627L363.24 324.587L360.827 331.507L358.413 338.387L356.053 345.147L353.707 351.867L351.373 358.4L349.053 364.893L346.693 371.133L344.36 377.347L341.947 383.213L339.587 388.973L334.533 399.907L332.013 404.827L329.4 409.56L326.707 413.987L323.947 418.12L321.133 421.88L318.227 425.32L315.267 428.413L312.253 431.107L309.133 433.453L305.933 435.453L302.68 437.08L299.173 438.373L297.347 438.84L295.2 439.147L292.733 439.28L290.027 439.213L287.133 438.947L284.027 438.48L280.773 437.827L277.427 436.987L273.987 435.973L270.48 434.813L266.947 433.507L263.493 432.12L256.36 428.907L249.613 425.427L243.213 421.707L240.36 419.907L237.613 418.08L235.08 416.267L232.76 414.507L230.72 412.84L228.88 411.2L220.84 403.853L212.627 396.707L204.373 389.827L196.067 383.173L187.693 376.733L179.293 370.507L170.84 364.44L162.36 358.533L153.84 352.76L145.307 347.093L136.733 341.533L128.147 336.04L119.547 330.627L110.96 325.213L102.333 319.813L93.7333 314.44L85.1066 308.987L76.5066 303.547L67.8933 297.96L59.3066 292.4L50.72 286.6L42.1733 280.813L33.6399 274.72L27.7333 270.493H27.8533L30.8 270.507L33.8799 270.64L37.12 270.88L40.4799 271.2L43.92 271.6L47.4399 272.04L54.6399 272.947L62.1066 273.893L69.2266 274.373L77.16 274.827L89.7333 273.24C94.4799 272.627 97.84 268.28 97.2266 263.52C96.6133 258.76 92.2666 255.4 87.5066 256.013L76.1466 257.52L70.3466 257.08L63.76 256.667L56.8 255.8L49.5867 254.907L45.9066 254.467L42.2132 254.067L38.52 253.747L34.8266 253.493L31.1333 253.36L27.4799 253.387L23.8399 253.56L20.2132 253.947L16.6533 254.587L13.1466 255.507L9.66663 256.787L6.15999 258.573L2.59996 262L0.973267 266.547L1.01324 269.933L1.52001 272.36L2.1066 274.107L2.55999 275.28L3.39996 277.44L4.41324 279.907L5.55999 282.56L6.79996 285.387L8.17327 288.373L9.66663 291.533L12.8666 298.027L16.4132 304.827L20.1867 311.64L22.1867 315.08L24.2132 318.427L26.2799 321.693L28.3733 324.853L30.4933 327.907L32.6533 330.813L34.8266 333.56L37.0399 336.147L39.2933 338.507L41.6266 340.68L44.0799 342.64L46.2799 344.053C50.1066 346.507 55.1866 345.387 57.6266 341.56C60.08 337.733 58.96 332.653 55.1333 330.2L53.6799 329.293L52.4 328.267L50.8933 326.84L49.2533 325.12L47.5333 323.107L45.7333 320.827L43.8799 318.32L42.0132 315.627L40.1466 312.76L38.2666 309.773L36.4132 306.68L34.6132 303.547L31.0266 297.027L28.76 292.573L32.2666 295.08L41.0132 300.987L49.7333 306.867L58.4533 312.52L67.1466 318.147L75.8399 323.64L84.5066 329.12L93.1466 334.52L101.747 339.893L110.307 345.293L118.867 350.68L127.36 356.107L135.8 361.587L144.2 367.147L152.56 372.8L160.853 378.573L169.093 384.493L177.267 390.547L185.387 396.787L193.427 403.227L201.413 409.88L209.333 416.76L217.253 423.987L219.507 426L222.08 428.093L224.853 430.2L227.8 432.307L230.96 434.413L234.36 436.547L241.32 440.587L248.853 444.48L256.613 447.96L260.72 449.627L264.773 451.12L268.84 452.453L272.907 453.653L276.987 454.667L281.027 455.48L285.04 456.08L289.04 456.44L292.973 456.52L296.867 456.32L300.733 455.76L304.533 454.773L309.533 452.893L314.373 450.493L318.907 447.64L323.2 444.413L327.24 440.787L331.027 436.827L334.613 432.587L338 428.027L341.213 423.227L344.267 418.187L347.2 412.893L350.053 407.307L355.293 395.933L357.84 389.72L360.333 383.613L362.747 377.173L365.147 370.8L367.52 364.173L369.867 357.573L372.227 350.787L374.573 344.027L376.987 337.16L379.373 330.307L381.853 323.413L384.307 316.56L386.907 309.707L389.493 302.907L392.253 296.187L395.027 289.44L397.907 282.88L400.907 276.413L404.027 270.08L407.28 263.867L410.653 257.827L414.173 251.973L417.84 246.293L421.667 240.84L425.667 235.613L429.827 230.613L434.16 225.88L438.707 221.413L443.44 217.2L448.373 213.307L453.547 209.72L458.947 206.413L464.573 203.467L470.52 200.827L474.56 199.36L478.413 198.32L482.173 197.653L485.84 197.307L489.347 197.32L492.84 197.64L496.267 198.253L499.64 199.16L503.013 200.373L506.387 201.853L509.733 203.613L513.08 205.667L516.427 207.973L519.733 210.52L523.053 213.32L526.36 216.347L529.64 219.573L532.826 222.933L539.373 230.36L545.747 238.28L552.053 246.64L558.307 255.253L564.507 264.04L570.667 272.8L573.76 277.16L576.853 281.467L579.947 285.707L583.067 289.867L586.2 293.933L589.347 297.88L592.52 301.707L595.747 305.387L599 308.893L602.307 312.24L605.693 315.387L609.147 318.307L612.667 321.013L616.32 323.467L620.053 325.627L623.92 327.48L627.947 328.987L631.973 330.067L636.693 331L641.24 331.707L645.653 332.2L649.973 332.48L654.187 332.56L658.28 332.427L662.28 332.107L666.187 331.573L669.947 330.827L673.613 329.893L677.173 328.747L680.6 327.413L683.907 325.907L687.093 324.2L690.133 322.307L692.16 320.893C695.253 323.987 700.16 324.44 703.653 321.653L707.293 318.72L710.48 316.16L713.28 313.933L715.747 311.973L717.88 310.28L719.72 308.827L722.773 306.427L725.093 304.6L726.96 303.08L727.933 302.227L728.813 301.413L729.68 300.56L730.547 299.68L731.426 298.72L732.36 297.693L733.373 296.547L734.493 295.253L735.787 293.76L737.267 292.067L738.973 290.107L740.973 287.84C743.973 284.44 743.653 279.24 740.253 276.24C736.84 273.227 731.653 273.56 728.64 276.96Z" fill="#100F0D"/>
</svg>
