<svg width="341" height="214" viewBox="0 0 341 214" fill="none" xmlns="http://www.w3.org/2000/svg">
<path d="M51.8534 105.627L52.4799 100.947L53.3066 96.4134L54.3333 91.9868L55.5333 87.6934L56.92 83.5467L58.5066 79.5067L60.24 75.5868L62.1333 71.8134L64.2133 68.1467L66.44 64.6001L68.8133 61.1868L71.36 57.8934L74.04 54.7067L76.8534 51.6535L79.8267 48.7201L82.92 45.9067L86.1333 43.2268L89.4933 40.6667L92.96 38.2134L96.5466 35.9067L100.253 33.7201L104.053 31.6667L107.947 29.7334L111.96 27.9467L116.053 26.28L120.227 24.7467L124.493 23.3601L128.827 22.0934L133.227 20.9734L137.707 19.9868L142.227 19.1467L146.8 18.44L151.44 17.88L156.107 17.4535L160.813 17.1734L165.547 17.0401L170.32 17.0535L175.093 17.2001L179.893 17.5067L184.693 17.9601L189.493 18.5467L194.293 19.2934L199.093 20.1868L203.867 21.2268L208.627 22.4268L213.36 23.7601L218.053 25.2535L222.72 26.8934L227.347 28.6934L231.92 30.6268L236.453 32.7334L240.92 34.9868L245.32 37.3868L249.667 39.9467L253.933 42.6667L258.107 45.5334L262.213 48.5601L266.24 51.7334L270.16 55.0667L273.987 58.5734L277.707 62.2268L281.32 66.0401L284.827 70.0134L288.227 74.1601L291.493 78.44L294.627 82.9201L297.653 87.5467L300.52 92.3467L303.253 97.3201L305.84 102.453L308.267 107.76L310.547 113.253L312.667 118.92L314.6 124.747L316.373 130.773L317.973 136.96L319.373 143.333L320.587 149.907L321.613 156.64L322.44 163.573L323.04 170.827C323.453 175.6 327.653 179.147 332.427 178.747C337.213 178.333 340.76 174.133 340.347 169.36L339.707 161.813L338.813 154.32L337.693 147.013L336.373 139.893L334.84 132.92L333.08 126.16L331.147 119.56L329 113.133L326.653 106.893L324.147 100.84L321.44 94.9467L318.56 89.2535L315.52 83.7334L312.32 78.3868L308.947 73.2268L305.453 68.2401L301.787 63.4268L297.987 58.8134L294.067 54.3734L290.013 50.1067L285.84 46.0268L281.56 42.1201L277.16 38.4001L272.667 34.8667L268.08 31.4934L263.387 28.2934L258.627 25.28L253.787 22.44L248.88 19.7734L243.893 17.28L238.867 14.9601L233.773 12.8134L228.64 10.8401L223.467 9.02676L218.24 7.3868L213 5.92014L207.733 4.61336L202.427 3.48003L197.133 2.50671L191.813 1.70671L186.493 1.05347L181.187 0.586792L175.88 0.266739L170.573 0.10672L165.307 0.120132L160.053 0.280029L154.813 0.600082L149.627 1.09343L144.48 1.73341L139.373 2.53342L134.32 3.49344L129.32 4.61336L124.373 5.89343L119.507 7.32013L114.72 8.90672L109.987 10.6535L105.36 12.5601L100.813 14.6134L96.3466 16.8268L92 19.2001L87.76 21.7201L83.6267 24.4001L79.6133 27.2401L75.7333 30.2268L71.9733 33.3868L68.3733 36.68L64.9066 40.1334L61.5867 43.7467L58.4267 47.5067L55.44 51.4001L52.6133 55.4667L49.9867 59.68L47.5333 64.0134L45.2667 68.5334L43.2267 73.1601L41.3733 77.9334L39.7333 82.8535L38.32 87.8934L37.1333 93.0667L36.16 98.3868L35.4534 103.813L34.96 109.36L34.72 115.04L34.7333 120.84L34.9867 126.733L35.5066 132.773L36.2933 138.907L37.3333 145.16L38.6534 151.52L40.2534 158L42.12 164.56L44.2799 171.267L46.7333 178.053L49.4667 184.947L52.5066 191.973L53.0534 193.12L52.2667 192.64L50.04 191.12L47.6133 189.347L44.9733 187.28L42.12 184.893L39.0667 182.24L35.8 179.267L32.2667 175.933L29.1733 172.987L26.6799 170.64L24.7466 168.8L23.24 167.36L22.16 166.307L21.4 165.507L20.8267 164.84L20.2799 164.147L19.5733 163.147L19.1867 162.587L18.7066 161.88L18.16 161.04L17.5333 160.093L16.8133 159.013L16 157.813C13.4933 154.027 8.3866 153 4.61327 155.52C0.826603 158.04 -0.199959 163.147 2.32004 166.92L3.12004 168.12L3.82668 169.187L4.45337 170.133L5.02668 171L5.56001 171.8L6.09335 172.587L7.06666 173.947L8.10663 175.293L9.22668 176.587L10.44 177.853L11.7867 179.187L13.4 180.733L15.36 182.587L17.8 184.92L20.8933 187.893L24.5333 191.36L28.0133 194.56L31.32 197.48L34.4667 200.133L37.4667 202.547L40.32 204.68L43.0534 206.6L45.72 208.28L48.2799 209.72L50.7867 210.947L53.32 211.947L55.8133 212.693L58.3466 213.173L60.9733 213.347L63.5733 213.16L66.12 212.6L68.5867 211.613L70.76 210.333L72.6799 208.813L74.3466 207.093L75.7466 205.293L76.9333 203.427L77.9867 201.493L78.96 199.347L80.44 195.467L81.76 191.173L82.9466 186.707L84.0933 182.08L85.2534 177.347L86.5066 172.52L87.8534 167.68L89.3733 162.88L91.1333 158.173L93.1333 153.613L95.4133 149.28L98.2799 144.867C100.88 140.827 99.7066 135.453 95.6799 132.867C91.6399 130.267 86.2666 131.427 83.6799 135.467L80.44 140.533L77.5066 146.093L75.0799 151.68L73.0133 157.24L71.2799 162.733L69.8 168.067L68.52 173.187L67.3733 178.027L66.3066 182.467L64.6666 178.653L62.12 172.24L59.8534 165.933L57.8666 159.787L56.16 153.773L54.7066 147.867L53.52 142.133L52.5867 136.507L51.8799 131.013L51.4267 125.68L51.2 120.467V115.373L51.4133 110.44L51.8534 105.627Z" fill="#100F0D"/>
</svg>
