<svg width="152" height="244" viewBox="0 0 152 244" fill="none" xmlns="http://www.w3.org/2000/svg">
<path d="M41.9333 207.133L47.16 211.6L52.6799 215.827L58.4534 219.827L64.5333 223.573L70.8933 227.027L77.5066 230.213L84.4133 233.107L91.4534 235.613L95.4666 236.92L99.6 238.213L103.92 239.453L108.4 240.627L113.04 241.64L117.773 242.44L122.6 242.973L127.533 243.173L132.28 242.933L134.947 242.627L137.44 242.173L139.92 241.587L142.373 240.84L144.827 239.907L146.947 238.92C151.067 237 152.84 232.107 150.933 227.987C149.013 223.867 144.12 222.093 140 224.013L138.413 224.76L137.053 225.28L135.6 225.72L134.08 226.08L132.533 226.347L131.08 226.533L127.453 226.72L123.853 226.573L120.067 226.147L116.173 225.493L112.24 224.613L108.28 223.587L104.347 222.44L100.48 221.227L96.84 220.04L90.36 217.72L84.2799 215.16L78.44 212.333L72.84 209.267L67.52 205.973L62.44 202.44L57.6133 198.72L53.0534 194.813L48.7733 190.707L44.72 186.453L40.96 182.053L37.4666 177.493L34.2267 172.84L31.2799 168.08L28.6 163.213L26.1733 158.28L24.0534 153.293L22.2133 148.253L20.64 143.173L19.36 138.107L18.3733 133.013L17.6534 127.933L17.24 122.907L17.1066 117.907L17.2534 112.96L17.7066 108.107L18.44 103.333L19.4534 98.64L20.76 94.08L22.3733 89.64L24.2534 85.3067L26.4267 81.16L28.92 77.1333L31.6933 73.2667L34.7733 69.6L38.1733 66.0934L41.8799 62.76L45.8933 59.6533L50.2799 56.7467L55 54.0533L60.0534 51.6267L65.4933 49.4533L71.2933 47.5333L77.4534 45.9066L84.04 44.6134L90.9867 43.6134L93.92 43.3467L91.8933 45.2533L87.64 49.3067L83.1733 53.68L78.6 58.4667L74.0133 63.64L69.52 69.2134L65.1867 75.2533L61.3333 81.4933C58.8266 85.5733 60.1067 90.92 64.1867 93.44C68.28 95.9467 73.6266 94.6667 76.1333 90.5867L79.64 84.84L83.32 79.6933L87.2534 74.8L91.3333 70.16L95.5066 65.7867L99.6666 61.64L103.747 57.68L107.68 53.92L111.307 50.36L113.08 48.56L114.747 46.8L116.307 45.04L117.787 43.2667L119.173 41.44L120.427 39.56L121.547 37.56L122.507 35.36L123.213 32.9867L123.6 30.4L123.52 27.5867L122.893 24.84L121.787 22.2667L120.227 19.92L118.413 17.9467L116.4 16.24L114.147 14.7066L111.707 13.3467L109.067 12.0934L106.16 10.9067L103 9.78667L99.56 8.69337L95.7867 7.62671L91.6799 6.56004L87.2534 5.52L82.4399 4.48003L77.2267 3.43999L71.6666 2.38667L65.6666 1.33334L59.2666 0.266678C54.7866 -0.47998 50.5466 2.54671 49.8 7.0267C49.0533 11.5067 52.08 15.7467 56.56 16.4934L62.8799 17.5467L68.6933 18.5867L74.0666 19.6L79.04 20.6134L83.5733 21.6267L87.6933 22.6134L91.4133 23.6L94.72 24.56L97.64 25.52L97.9066 25.6134L97.2534 25.64L88.9867 26.3733L81.1066 27.52L73.5733 29.0134L66.36 30.92L59.5466 33.1867L53.0799 35.7867L46.9466 38.7467L41.2133 42.0267L35.8267 45.6L30.8 49.4934L26.1867 53.6533L21.9333 58.0533L18.0534 62.72L14.5733 67.6L11.4667 72.6533L8.73332 77.9067L6.39998 83.3067L4.42668 88.8267L2.82668 94.5067L1.61326 100.24L0.720036 106.067L0.213265 111.973L0.0666504 117.907L0.239958 123.88L0.773291 129.88L1.65337 135.867L2.83996 141.827L4.37329 147.787L6.22668 153.693L8.3867 159.533L10.8933 165.32L13.7066 171L16.8133 176.587L20.2534 182.067L24 187.4L28.0267 192.587L32.3733 197.627L37.0133 202.48L41.9333 207.133Z" fill="#100F0D"/>
</svg>
