<svg width="152" height="246" viewBox="0 0 152 246" fill="none" xmlns="http://www.w3.org/2000/svg">
<path d="M69.9303 216.253L73.9036 213.84L77.7436 211.44L81.4903 209.08L85.1036 206.827L88.7169 204.667L93.7436 201.68L99.2237 198.24L104.93 194.427L110.757 190.28L116.597 185.773L122.237 181.027L125.104 178.44L127.824 175.84L130.45 173.16L132.984 170.413L135.41 167.56L137.69 164.653L139.85 161.667L141.837 158.573L143.624 155.4L145.224 152.133L146.597 148.76L147.69 145.293L148.917 140.387L149.85 135.44L150.504 130.52L150.89 125.613L151.01 120.693L150.877 115.813L150.504 110.973L149.877 106.147L149.024 101.387L147.957 96.68L146.65 92L145.144 87.4133L143.437 82.88L141.544 78.4133L139.45 74.0266L137.184 69.72L134.744 65.48L132.13 61.36L129.384 57.3066L126.45 53.36L123.384 49.52L120.184 45.7867L116.837 42.1467L113.37 38.64L109.784 35.2533L106.077 31.9733L102.264 28.84L98.357 25.8266L94.3303 22.9467L90.2237 20.2266L86.0237 17.64L81.7303 15.2L77.3836 12.9333L72.957 10.8266L68.4502 8.8933L63.9036 7.13333L59.2903 5.54668L54.6237 4.14668L49.9303 2.94667L45.1836 1.93333L40.4103 1.13333L35.6103 0.533325L30.797 0.159958L25.957 0L21.1303 0.0800171L16.3036 0.386658L11.4636 0.946671L6.85022 1.73334C2.38356 2.48 -0.643109 6.73334 0.116891 11.2C0.876891 15.68 5.11697 18.6933 9.59697 17.9467L13.7703 17.24L17.757 16.7733L21.7836 16.52L25.8369 16.4533L29.8769 16.5867L33.957 16.9066L38.0369 17.4133L42.0903 18.0933L46.157 18.9733L50.2103 20.0133L54.2237 21.2266L58.2369 22.6133L62.2103 24.1467L66.1303 25.8533L70.0103 27.7066L73.837 29.7066L77.597 31.8533L81.3036 34.1467L84.9303 36.56L88.4769 39.1066L91.9303 41.7867L95.3036 44.5733L98.5703 47.4667L101.73 50.4933L104.784 53.6133L107.704 56.8133L110.517 60.12L113.197 63.5066L115.73 66.9733L118.117 70.52L120.384 74.12L122.477 77.7867L124.41 81.52L126.184 85.2933L127.784 89.1066L129.21 92.9733L130.477 96.8667L131.544 100.787L132.424 104.733L133.117 108.707L133.61 112.68L133.904 116.68L133.997 120.68L133.89 124.68L133.544 128.693L132.997 132.707L132.224 136.707L131.21 140.72L130.504 142.907L129.597 145.107L128.464 147.373L127.157 149.68L125.664 151.987L123.97 154.32L122.13 156.653L120.144 158.96L117.997 161.28L115.744 163.56L113.384 165.8L110.984 167.947L105.784 172.32L100.477 176.387L95.1169 180.187L89.8103 183.733L84.7169 186.92L79.8769 189.787L76.1036 192.027L72.3036 194.4L68.5303 196.76L64.8103 199.093L61.1169 201.333L57.4502 203.44L53.8103 205.373L50.2369 207.067L46.6636 208.507L43.1703 209.667L43.597 209.067L44.8237 207.453L46.2636 205.653L47.8903 203.693L49.7303 201.573L51.797 199.267L54.0502 196.787L56.5036 194.133L59.197 191.28L62.0903 188.253L65.197 185.027L68.5436 181.573C71.7169 178.32 71.6502 173.12 68.3836 169.947C65.1436 166.787 59.9303 166.853 56.7703 170.107L53.3836 173.573L50.2237 176.84L47.2636 179.92L44.4903 182.827L41.9169 185.573L39.5436 188.147L37.3303 190.573L35.3169 192.88L33.4636 195.027L31.7703 197.08L30.2369 199.04L28.8636 200.907L27.6237 202.72L26.5169 204.507L25.5703 206.28L24.757 208.107L24.0903 210.053L23.6636 212.093L23.4903 214.293L23.7036 216.667L24.3436 218.933L25.357 221.04L26.6903 222.88L28.4903 224.627L31.0903 226.467L34.157 228L37.2769 229.227L40.5436 230.333L44.0502 231.413L47.7836 232.587L51.7436 233.867L55.9436 235.333L60.3703 237.053L64.997 239.027L69.7836 241.36L74.9703 244.227C79.1703 246.533 84.4503 245 86.7703 240.8C89.077 236.587 87.5436 231.307 83.3303 229L77.757 225.96L72.1836 223.267L66.8769 221.013L63.6502 219.787L65.8369 218.613L69.9303 216.253Z" fill="#100F0D"/>
</svg>
