<svg width="148" height="476" viewBox="0 0 148 476" fill="none" xmlns="http://www.w3.org/2000/svg">
<path d="M17.9867 67.8668L18.3333 68.1734L18.4266 68.2668L18.5066 68.4001C18.3066 68.1868 18.12 67.9601 17.8933 67.7867L17.9867 67.8668ZM14.8933 66.2268L15.2666 66.3334L15.96 66.6001L16.5732 66.8935L16.6399 66.9334C16.0799 66.6401 15.5066 66.3868 14.8933 66.2268ZM11.5066 66.0268L11.96 65.9601L12.8266 65.9334L13.6799 65.9868L13.92 66.0268C13.12 65.9201 12.3066 65.8935 11.5066 66.0268ZM8.21322 67.2801L8.41322 67.1468L8.97324 66.8268L9.62663 66.5334L10.3465 66.2801L11.0399 66.1067C10.0532 66.3201 9.09322 66.6801 8.21322 67.2801ZM143.147 458.52L140.773 453.987L138.56 449.147L136.48 444.067L134.52 438.813L132.64 433.4L128.92 422.187L125.053 410.88L120.693 399.987L117.413 392.667L114.213 385.533L111.013 378.413L107.8 371.24L104.493 364.067L101.213 356.947L97.9333 349.827L94.6399 342.667L91.2666 335.52L87.9066 328.413L84.5465 321.307L81.1732 314.173L77.7465 307.067L74.3333 299.987L70.92 292.92L67.4799 285.8L63.9999 278.733L60.5333 271.693L57.0666 264.653L53.5867 257.587L50.0666 250.573L46.56 243.587L43.0533 236.613L39.5465 229.64L39.0666 228.64L38.36 227.08L37.4533 225.04L36.4132 222.627L35.2533 219.84L33.9867 216.76L32.6399 213.427L31.2533 209.893L29.8399 206.187L28.4132 202.373L26.9999 198.507L25.6533 194.653L23.1066 186.947L21.0132 179.813L19.5465 173.507L19.2132 171.613L20.0933 171.787L21.96 172.213L24.0266 172.747L26.2666 173.373L28.6533 174.08L31.1333 174.867L36.56 176.653L42.3333 178.653L48.4132 180.827L54.6666 183.093L61.0533 185.4L67.4933 187.693L73.76 189.827L80.1866 192L92.0666 195.507L102.32 197.64L105.24 198.013L107.707 198.187L110.107 198.2L112.52 198.027L115.013 197.573L117.507 196.747L120.053 195.387L122.493 193.28L124.36 190.56L125.48 187.52L125.853 184.4L125.64 181.587L124.893 177.267L123.96 173.04L122.867 168.893L121.64 164.787L120.24 160.733L118.667 156.64L115.307 148.947L111.413 141.307L107.147 133.867L102.573 126.587L97.72 119.413L92.6666 112.373L87.4799 105.413L82.1866 98.5334L76.8933 91.7334L71.7066 84.9334L66.4933 78.0801L61.2666 71.2401L56.2933 64.7201L52.1066 57.9601L47.7066 50.8534L43.2933 43.7468L39.3465 37.4801L37.1066 30.7468L34.4799 23.0934L33.9867 21.6401L36.92 22.8001L40.4266 24.2534L43.9999 25.7734L51.36 28.9868L58.6132 32.2134L65.4799 35.2534L68.7465 36.6667L71.8266 37.9601L74.7066 39.1201L77.4132 40.1334L79.9465 40.9734L82.0132 41.5334C86.6399 42.7867 91.4 40.0401 92.6533 35.4135C93.8933 30.7734 91.1466 26.0134 86.52 24.7734L84.9866 24.3601L83.2132 23.7734L80.9732 22.9334L78.3999 21.9201L75.52 20.7201L72.4132 19.3867L65.5999 16.4001L58.2933 13.1734L50.7999 9.94678L46.9999 8.36011L43.2799 6.86676L39.6266 5.4534L36.0533 4.16013L32.5867 3.00009L29.2799 2.01343L26.0666 1.2001L22.9465 0.600098L19.8933 0.28009L16.6799 0.346771L13.0132 1.2001L9.05332 3.73343L5.94655 7.44006L3.67988 11.7867L2.21322 16.2401L1.27988 20.7601L0.773242 25.3601L0.573242 29.9201L0.599935 34.4001L0.786654 38.7734L1.09329 42.8935L1.45332 46.7067L1.81322 50.1067L2.10658 52.9734L2.2666 54.5867L2.43991 56.6268L2.62663 58.9734L2.82663 61.4801L3.03991 64.0668L3.2666 66.6134L3.49329 69.0668L3.74655 71.3067L3.99993 73.2134L4.15996 74.2134L4.34655 75.1601L4.63991 76.2534L4.94655 77.0801L6.75996 79.8534L6.77324 79.8668L6.78665 79.8801L6.79993 79.8935L6.81322 79.9067L6.97324 80.0534L7.33327 80.3867L7.74655 80.7201L8.22663 81.0534L8.77324 81.3734L9.41322 81.6801L10.12 81.9468L10.9066 82.1734L11.7333 82.3067L12.5999 82.3734L13.4666 82.3334L14.32 82.2134L15.12 82.0134L15.8533 81.7468L16.52 81.4401L17.0933 81.1201L17.36 80.9468L17.3732 80.9334L17.3867 80.9201H17.3999V80.9067H17.4132C20.6532 78.7201 21.68 74.6534 20.32 71.1601L20.2799 70.9201L20.0799 69.3734L19.8666 67.4135L19.6533 65.1334L19.4399 62.6801L19.2399 60.1468L19.0399 57.6534L18.8533 55.2935L18.6799 53.1601L18.52 51.3468L18.2266 48.4268L17.8933 45.1334L17.5732 41.5601L17.32 37.8401L17.1732 34.0534L17.1867 30.2935L17.3867 26.7201L18.0666 28.7201L20.6799 36.3734L23.6799 44.9468L28.56 52.8935L32.9732 60.0001L37.3867 67.1067L42.0399 74.5601L47.4933 81.7334L52.72 88.5868L57.9465 95.4268L63.1866 102.307L68.5066 109.12L73.6933 115.853L78.72 122.587L83.5465 129.307L88.1066 136.027L92.3465 142.773L96.2399 149.547L99.7066 156.333L102.773 163.307L104.053 166.64L105.24 170.093L106.307 173.587L107.227 177.08L108.013 180.6L108.08 181.013L106.88 180.933L105.547 180.787L96.2799 178.893L85.2533 175.653L79.2533 173.613L73.0933 171.547L66.7999 169.32L60.4533 167.04L54.16 164.787L47.9867 162.6L42.0132 160.533L36.3732 158.693L33.5999 157.827L30.96 157.04L28.4132 156.347L25.96 155.72L23.5867 155.187L21.32 154.747L19.12 154.413L16.9333 154.213L14.7732 154.187L12.5066 154.373L9.97324 154.973L6.69329 156.68L3.71999 160.053L2.30658 163.907L1.94655 167.2L2.02663 170.347L2.38665 173.587L3.02663 177.107L4.69329 184.16L6.99993 191.987L9.69329 200.053L11.1465 204.187L12.6266 208.213L14.1066 212.16L15.5867 215.987L17.0399 219.653L18.4399 223.093L19.76 226.293L20.9867 229.2L22.0799 231.747L23.0666 233.96L23.9066 235.76L24.5732 237.147L28.1066 244.133L31.6399 251.107L35.16 258.093L38.6666 265.04L42.1465 272.04L45.6266 279.067L49.1066 286.093L52.5732 293.093L55.9866 300.133L59.4132 307.2L62.8266 314.28L66.2399 321.32L69.5866 328.387L72.96 335.493L76.32 342.587L79.6666 349.653L82.9465 356.733L86.2266 363.853L89.52 370.987L92.7999 378.067L95.9866 385.16L99.1866 392.28L102.387 399.413L105.507 406.36L109.613 416.613L113.333 427.453L117.053 438.667L119.04 444.387L121.16 450.067L123.467 455.68L126 461.213L128.84 466.627L131.867 471.587C134.227 475.467 139.293 476.68 143.16 474.307C147.04 471.947 148.253 466.88 145.893 463.013L143.147 458.52Z" fill="#100F0D"/>
</svg>
