<svg width="382" height="322" viewBox="0 0 382 322" fill="none" xmlns="http://www.w3.org/2000/svg">
<path d="M54.1453 260.107L59.0827 261.72L64.1253 263.147L69.2827 264.4L74.5187 265.507L79.8227 266.48L85.204 267.32L90.6293 268.027L96.0893 268.64L101.585 269.16L107.139 269.587L118.08 270.227L128.991 270.64L139.677 270.907L150.067 271.107L160.016 271.32L169.419 271.613L177.56 272L185.755 272.387L193.993 272.8L202.313 273.227L210.648 273.493L219.041 273.773L227.431 273.8L235.905 273.813L244.351 273.387L252.879 272.947L261.349 271.893L269.739 270.853L279.297 269.173L288.285 267.36L296.792 265.4L304.879 263.307L312.523 261.053L319.707 258.667L326.497 256.16L332.873 253.493L338.813 250.68L344.38 247.747L349.559 244.653L354.319 241.427L358.72 238.053L362.748 234.533L366.359 230.867L369.611 227.067L372.48 223.093L374.927 219.013L376.996 214.813L378.667 210.48L379.913 206.08L380.784 201.627L381.264 197.093L381.352 192.547L381.099 188L380.489 183.413L379.544 178.867L378.305 174.32L376.752 169.76L374.913 165.24L372.821 160.733L370.449 156.213L367.828 151.733L364.98 147.267L361.884 142.787L358.565 138.347L355.044 133.933L351.3 129.52L347.357 125.133L343.231 120.773L338.907 116.427L334.403 112.107L329.739 107.827L324.897 103.573L319.899 99.3601L314.761 95.1868L309.465 91.0535L304.011 86.9334L298.433 82.9467L292.821 78.9202L286.967 75.0134L281.115 71.1068L275.053 67.3202L269.003 63.5467L262.788 59.8935L256.564 56.2535L250.191 52.7601L243.813 49.2668L237.317 45.9467L230.833 42.6268L224.265 39.4801L217.685 36.3467L211.044 33.4001L204.399 30.4535L197.725 27.7335L191.06 25.0134L184.393 22.5068L177.712 20.0001L171.056 17.7467L164.396 15.4935L157.796 13.4935L151.201 11.5202L144.688 9.80011L138.095 8.0535L125.299 5.21341L112.827 3.02682L106.559 2.13345L100.459 1.42682L94.464 0.906769L88.556 0.546753L82.7427 0.386841L77.0547 0.413391L71.468 0.626831L65.9933 1.0401L60.6613 1.68008L55.4533 2.50677L50.368 3.57343L45.4533 4.88007L40.6813 6.41339L36.0533 8.21341L31.6293 10.2668L27.38 12.5734L23.312 15.1868L19.4467 18.1068L15.2907 21.8268L11.6 25.8801L8.488 30.1467L5.88266 34.6001L3.80666 39.2401L2.27732 43.9467L1.21599 48.7334L0.63199 53.5734L0.495987 58.3868L0.74265 63.1734L1.37732 67.9467L2.35865 72.6268L3.63332 77.2401L5.21332 81.7734L7.056 86.2001L9.124 90.4935L11.432 94.6935L13.932 98.7334L16.604 102.627L19.4573 106.36L22.4467 109.893L25.5613 113.24L28.8106 116.4L32.16 119.307L37.8707 123.853L43.7693 128.213L49.8106 132.347L55.988 136.28L62.3173 139.96L68.764 143.4L75.3213 146.6L82.0067 149.533L88.78 152.2L95.6413 154.587L102.608 156.68L109.633 158.467L116.72 159.96L123.885 161.133L131.081 161.96L138.313 162.467L145.595 162.613L152.872 162.373L160.157 161.8L167.46 160.827L174.724 159.44L181.963 157.68L189.184 155.493L196.116 152.96C200.62 151.32 202.933 146.333 201.285 141.827C199.637 137.32 194.649 135 190.145 136.653L183.675 139.027L177.392 140.933L171.052 142.48L164.685 143.68L158.313 144.547L151.905 145.053L145.485 145.267L139.085 145.133L132.669 144.693L126.267 143.96L119.904 142.92L113.556 141.587L107.241 139.987L100.996 138.107L94.7933 135.947L88.652 133.547L82.6053 130.88L76.6333 127.973L70.7507 124.84L64.992 121.48L59.336 117.893L53.7987 114.107L48.4106 110.133L43.152 105.947L40.5173 103.653L37.9266 101.147L35.392 98.4134L32.9387 95.5202L30.612 92.4801L28.4147 89.28L26.3627 85.9734L24.5 82.5868L22.832 79.1068L21.3613 75.6001L20.1347 72.08L19.1533 68.5467L18.4147 65.0268L17.9533 61.5868L17.7773 58.1734L17.864 54.8401L18.248 51.6401L18.948 48.4935L19.932 45.4401L21.2387 42.5068L22.928 39.6268L24.9747 36.8134L27.432 34.1068L30.4533 31.4134L33.1867 29.3467L36.1653 27.4268L39.388 25.6668L42.8147 24.0801L46.4373 22.6668L50.3 21.4134L54.352 20.3335L58.5907 19.4401L63.0426 18.7202L67.668 18.1734L72.4547 17.8001L77.424 17.6134L82.5413 17.5734L87.7973 17.7202L93.2053 18.0401L98.7346 18.5202L104.379 19.1602L110.052 19.9601L121.96 22.0401L134.167 24.7335L140.321 26.3467L146.555 27.9868L152.88 29.8801L159.196 31.7734L165.585 33.9334L171.979 36.0801L178.407 38.4935L184.853 40.8935L191.301 43.5202L197.743 46.1335L204.16 48.9601L210.581 51.7868L216.941 54.8268L223.313 57.8668L229.605 61.0668L235.889 64.2668L242.055 67.6268L248.219 71.0001L254.235 74.5067L260.256 78.0268L266.115 81.6801L271.961 85.3067L277.596 89.0535L283.231 92.8134L288.619 96.6535L294.043 100.533L299.223 104.413L304.276 108.36L309.18 112.333L313.939 116.333L318.517 120.347L322.924 124.373L327.163 128.413L331.199 132.467L335.04 136.507L338.688 140.56L342.113 144.573L345.317 148.587L348.311 152.587L351.059 156.533L353.565 160.453L355.843 164.333L357.855 168.147L359.609 171.92L361.123 175.613L362.359 179.227L363.331 182.773L364.056 186.24L364.508 189.587L364.695 192.867L364.64 196.067L364.32 199.16L363.727 202.213L362.883 205.213L361.765 208.133L360.328 211.053L358.605 213.947L356.557 216.787L354.131 219.627L351.36 222.453L348.211 225.227L344.628 227.96L340.657 230.667L336.268 233.293L331.412 235.853L326.141 238.347L320.423 240.747L314.22 243.053L307.58 245.253L300.471 247.36L292.857 249.333L284.793 251.2L276.233 252.933L267.257 254.52L259.305 255.507L251.433 256.493L243.509 256.893L235.499 257.307H227.456L219.328 257.293L211.193 257.027L202.997 256.76L194.816 256.347L186.555 255.933L178.333 255.56L170.06 255.16L160.451 254.853L150.401 254.64L140.045 254.44L129.505 254.187L118.871 253.787L108.199 253.16L102.981 252.76L97.7693 252.28L92.6173 251.693L87.5373 251.027L82.56 250.253L77.6853 249.373L72.9266 248.373L68.3213 247.24L63.8613 245.973L59.5573 244.587L55.4586 243.053L54.3853 242.587L54.4693 242.547L56.616 241.56L59.0187 240.547L61.6347 239.533L64.4733 238.52L67.5426 237.493L70.812 236.44L74.2893 235.387L77.9813 234.32L81.8613 233.213L85.9373 232.08L90.216 230.907L94.672 229.693L99.3213 228.44L104.161 227.133L109.173 225.787L114.372 224.36L119.737 222.88C124.357 221.6 127.064 216.813 125.781 212.187C124.499 207.573 119.712 204.867 115.091 206.147L109.756 207.64L104.607 209.053L99.6253 210.413L94.796 211.72L90.1373 213L85.6506 214.227L81.316 215.413L77.1493 216.587L73.1573 217.747L69.3213 218.893L65.6453 220.04L62.144 221.187L58.7893 222.333L55.588 223.507L52.556 224.707L49.6667 225.96L46.916 227.253L44.3293 228.627L41.8733 230.067L39.5453 231.64L37.3907 233.333L35.3827 235.173L33.5347 237.227L31.9333 239.44L30.5747 241.84L29.5 244.453L28.7813 247.16L28.3867 249.92L28.3227 252.76L28.5747 255.573L29.0827 258.36L29.856 261.187L30.856 263.987L32.0586 266.827L33.4867 269.733L35.1187 272.707L36.9413 275.747L38.984 278.907L41.228 282.173L43.6667 285.56L46.3293 289.107L49.208 292.787L52.2907 296.613L55.6027 300.613L59.1347 304.787L62.8747 309.133L66.852 313.68L71.0467 318.4C74.0586 321.8 79.2546 322.107 82.652 319.093C86.0493 316.08 86.36 310.893 83.3453 307.493L79.1946 302.8L75.308 298.36L71.6667 294.12L68.2493 290.053L65.0853 286.2L62.164 282.547L59.4653 279.067L57.0147 275.773L54.8053 272.68L52.8173 269.747L51.084 267.013L49.588 264.453L48.3093 262.093L47.2773 259.933L46.4653 257.96L46.1067 256.92L49.32 258.307L54.1453 260.107Z" fill="#100F0D"/>
</svg>
