<svg width="250" height="165" viewBox="0 0 250 165" fill="none" xmlns="http://www.w3.org/2000/svg">
<path d="M73.9853 150.173L76.608 147.44L79.204 144.56L84.008 138.88L88.5467 133.133L92.6707 127.72L94.5787 125.2L96.3413 122.893L97.9547 120.8L99.4053 118.987L100.636 117.52L101.568 116.507L106.611 111.48L111.604 106.507L116.855 101.613L122.104 96.7334L127.584 91.9467L133.073 87.1601L138.751 82.5067L144.419 77.84L150.269 73.3334L156.12 68.8134L162.129 64.4801L168.147 60.1334L174.288 55.9734L180.413 51.8134L186.652 47.8534L192.888 43.9067L199.212 40.2001L205.541 36.4801L211.933 32.9867L218.309 29.5067L224.727 26.3067L231.136 23.1067L237.565 20.2L244.147 17.2267C248.516 15.2534 250.455 10.1067 248.477 5.73338C246.5 1.37338 241.356 -0.573273 236.987 1.41339L230.409 4.3867L223.677 7.44002L216.973 10.8L210.276 14.1601L203.629 17.7867L197.001 21.4134L190.439 25.2801L183.868 29.1467L177.392 33.2667L170.921 37.3734L164.572 41.7067L158.24 46.04L152.033 50.5467L145.823 55.0667L139.773 59.7734L133.727 64.4667L127.869 69.32L122.025 74.1734L116.372 79.1601L110.708 84.1467L105.279 89.2534L99.848 94.3601L94.6747 99.5733L89.5533 104.733L87.96 106.48L86.3707 108.373L84.7253 110.467L83.0067 112.707L81.1987 115.107L79.3147 117.613L75.3173 122.92L71.0693 128.347L66.584 133.707L64.404 136.147L62.176 138.507L59.9613 140.667L57.7893 142.627L55.7053 144.32L53.716 145.707L51.8773 146.813L50.2867 147.56L48.9227 148L47.852 148.2H47.12L46.3613 148.013L45.3147 147.6L44.1827 146.933L42.9267 145.947L41.6 144.693L40.2533 143.147L38.9973 141.467L36.1067 136.84L33.468 131.6L30.9373 125.8L28.496 119.693L26.1187 113.48L23.764 107.453L22.54 104.453L21.2933 101.587L20.0027 98.84L18.6413 96.2L17.1653 93.6667L15.74 91.5733C13.1773 87.8267 8.06132 86.8667 4.31466 89.4267C0.565324 92.0001 -0.394674 97.1067 2.16666 100.853L3.25066 102.44L4.21332 104.093L5.24 106.093L6.29999 108.347L7.37999 110.84L8.472 113.507L10.7693 119.4L13.1667 125.68L15.744 132.133L18.556 138.587L21.7213 144.88L25.22 150.533L27.388 153.48L29.656 156.08L32.144 158.453L34.9013 160.6L38.0107 162.413L41.4547 163.8L45.2427 164.627L49.1747 164.68L52.8627 164.067L56.3293 162.973L59.6253 161.44L62.7147 159.613L65.6707 157.56L68.5373 155.253L71.2987 152.787L73.9853 150.173Z" fill="#100F0D"/>
</svg>
