<svg width="168" height="154" viewBox="0 0 168 154" fill="none" xmlns="http://www.w3.org/2000/svg">
<path d="M157.745 20.0135L164.187 15.1201C167.804 12.3734 168.509 7.21344 165.765 3.60011C163.023 -0.0132294 157.863 -0.719879 154.247 2.01346L147.801 6.90675L141.315 11.8268L134.747 16.9334L128.168 22.0401L121.545 27.3201L114.92 32.6001L108.288 38.0268L101.639 43.4534L95.0106 49.0268L88.3759 54.6135L81.8053 60.3334L78.2386 63.4268L74.2706 56.2801L68.7533 45.8401L66.1653 40.7734L63.6786 35.8135L61.32 30.9734L59.088 26.2668L56.9987 21.7468L55.0426 17.3734C53.1893 13.2268 48.3266 11.3735 44.1813 13.2268C40.036 15.0801 38.1773 19.9468 40.032 24.0801L42.0226 28.5468L44.1813 33.2401L46.476 38.0935L48.888 43.0801L51.416 48.2001L54.0746 53.4534L59.6186 64.1201L65.42 74.8801L62.2627 77.7201L55.9026 83.6801L49.5413 89.6534L43.3533 95.7201L37.1666 101.787L31.176 107.947L25.1733 114.133L19.4106 120.387L13.6413 126.64L8.15195 132.96L2.74531 139.187C-0.394688 142.813 -0.00137657 148.307 3.62262 151.44C7.24796 154.587 12.7306 154.187 15.872 150.56L21.264 144.333L26.572 138.187L32.1573 132.107L37.7506 126.013L43.584 119.987L49.4266 113.947L55.4479 107.973L61.4666 102L67.6546 96.1201L73.844 90.2401L74.0546 90.0401L78.1226 96.9734L84.7226 107.667L91.4333 117.947L98.2173 127.733L105.012 136.867L111.615 145C114.643 148.72 120.112 149.28 123.831 146.253C127.551 143.213 128.109 137.747 125.081 134.027L118.693 126.213L112.263 117.627L105.741 108.28L99.1866 98.4001L92.6907 88.1068L86.8267 78.3734L92.9133 72.9868L99.332 67.3068L105.813 61.7734L112.301 56.2268L118.813 50.8401L125.343 45.4534L131.864 40.2135L138.384 34.9868L144.861 29.9201L151.345 24.8668L157.745 20.0135Z" fill="#100F0D"/>
</svg>
