<svg width="696" height="99" viewBox="0 0 696 99" fill="none" xmlns="http://www.w3.org/2000/svg">
<path d="M111.189 55.6401L115.067 57.4667L115.803 57.5734L116.715 57.6401L117.528 57.6667L118.392 57.6534L119.369 57.6401L120.505 57.6001L121.787 57.5601C123.224 57.5068 124.488 56.9868 125.639 56.2934L125.992 56.2534L128.615 56.0001L131.467 55.7601L134.473 55.5067L137.596 55.2667L140.779 55.0268L143.965 54.8001L147.101 54.5867L150.133 54.4001L153.013 54.2134L155.673 54.0534L158.052 53.9468L160.105 53.8667L161.704 53.8534L162.941 53.8801C167.736 53.9601 171.688 50.1334 171.767 45.3334C171.847 40.5467 168.025 36.5867 163.231 36.5067L161.648 36.4934L159.588 36.5334L157.259 36.6401L154.689 36.7734L151.879 36.9601L148.885 37.1867L145.764 37.4534L142.547 37.7601L139.293 38.0801L136.051 38.4268L132.861 38.7734L129.793 39.1201L126.869 39.4801L124.153 39.8001L121.701 40.0934L119.523 40.3867L117.667 40.6401L116.213 40.8801L115.425 41.0401L114.609 41.2268L113.956 41.4268L111.828 42.4934H111.827H111.824H111.823H111.821H111.819H111.815L111.812 42.5067H111.808H111.805H111.801H111.796L111.792 42.5201H111.787L111.629 42.6268L111.293 42.8934L110.919 43.2134L110.504 43.6134L110.052 44.1334L109.573 44.7867L109.099 45.6134L108.671 46.6401L108.357 47.8534L108.228 49.2001L108.327 50.6001L108.648 51.9201L109.137 53.0801L109.713 54.0401L110.311 54.7867L110.888 55.3867L111.16 55.6268H111.165H111.168H111.171H111.173L111.176 55.6401H111.177H111.181H111.183H111.184H111.185H111.187H111.189Z" fill="#100F0D"/>
<path d="M210.025 55.3335L215.183 53.7201L220.188 52.4935L225.293 51.5602L230.456 50.8935L235.655 50.5068L240.904 50.3868L246.175 50.4802L251.441 50.8001L256.721 51.3468L261.992 52.0535L267.221 52.9602L272.559 54.0935C277.253 55.0668 281.855 52.0535 282.836 47.3602C283.815 42.6668 280.804 38.0668 276.111 37.0935L270.447 35.9201L264.563 34.9468L258.637 34.1868L252.667 33.6802L246.651 33.4401L240.639 33.4668L234.621 33.7602L228.597 34.3468L222.617 35.2268L216.664 36.3868L210.741 37.8802L205.123 39.6401C200.788 40.9868 198.372 45.6001 199.725 49.9335C201.08 54.2668 205.691 56.6801 210.025 55.3335Z" fill="#100F0D"/>
<path d="M374.869 32.0266L365.332 31.8133L355.667 31.7999L350.659 31.9199L345.657 32.1732L340.631 32.5866L335.568 33.1732L330.455 34.0133L325.565 35.08C321.127 36.0399 318.313 40.4266 319.277 44.8533C320.243 49.2933 324.621 52.1066 329.057 51.1466L333.505 50.1866L337.777 49.5199L342.139 49.0666L346.568 48.7866L351.055 48.6933L355.553 48.7199L364.953 48.9866L374.507 49.3333L384.115 49.4799C388.911 49.5466 392.848 45.7066 392.909 40.9066C392.972 36.1199 389.133 32.1733 384.337 32.1199L374.869 32.0266Z" fill="#100F0D"/>
<path d="M486.713 28.9732L478.42 28.4799L470.025 27.8399L461.459 27.4399L456.909 27.3999L452.376 27.5466L447.801 27.9199L443.173 28.5466L438.477 29.5199L434.111 30.7866C429.751 32.0532 427.239 36.6132 428.503 40.9732C429.767 45.3332 434.328 47.8399 438.688 46.5732L442.413 45.5066L445.869 44.8133L449.444 44.3866L453.116 44.1732H456.867L460.635 44.3333L468.771 44.96L477.136 45.7333L485.603 46.3066C490.389 46.6132 494.516 42.9866 494.823 38.1999C495.131 33.4133 491.5 29.2799 486.713 28.9732Z" fill="#100F0D"/>
<path d="M573.709 25.5733L564.183 24.8667L554.696 24.4667L549.799 24.3866L544.924 24.44L540.013 24.6133L535.051 24.92L530.013 25.4133L525.076 26.0667C520.576 26.6667 517.409 30.8 518.004 35.2933C518.601 39.8 522.732 42.96 527.233 42.3733L531.855 41.76L536.275 41.3733L540.693 41.16L545.111 41.0933L549.528 41.1733L553.907 41.36L563.005 42L572.245 42.8133L581.779 43.6933C586.557 44.1067 590.771 40.5867 591.192 35.8C591.613 31.0267 588.081 26.8133 583.305 26.3866L573.709 25.5733Z" fill="#100F0D"/>
<path d="M678.284 22.5335L668.98 21.7602L659.733 21.8001L650.652 21.8668L641.492 22.2935L632.519 22.6535C627.981 22.8268 624.443 26.6401 624.613 31.1735C624.785 35.7201 628.604 39.2535 633.14 39.0802L642.115 38.7735L650.901 38.5201L659.595 38.7201L668.125 38.9068L676.709 39.7735L685.653 40.6135C690.428 41.0535 694.652 37.5335 695.089 32.7602C695.527 27.9868 692.009 23.7601 687.232 23.3201L678.284 22.5335Z" fill="#100F0D"/>
<path d="M16.8333 79.7865L19.3267 81.3199L21.848 82.8266L24.2893 84.3199L29.316 87.5732L34.084 91.1865L38.944 95.8266C42.4267 99.1199 47.9226 98.9599 51.22 95.4799C54.516 91.9999 54.3653 86.5066 50.8827 83.2132L45.3107 77.9732L39.26 73.3999L33.5467 69.7065L30.7586 68.0266L28.2226 66.5199L25.8906 65.1199L23.7866 63.8132L21.98 62.6132L20.6613 61.6132L20.728 61.5865L25.8586 60.2532L31.1627 59.1599L36.5693 58.2932L42.0333 57.7065L47.5413 57.3732L53.036 57.3065L58.4586 57.5065L63.808 57.9865L69.0387 58.7065L74.076 59.7332L79.2093 61.1466C83.8373 62.3999 88.6067 59.6665 89.8626 55.0398C91.1187 50.4132 88.3853 45.6399 83.7573 44.3865L78.0413 42.8532L71.888 41.6398L65.6627 40.8266L59.3787 40.3599L53.0373 40.2532L46.7226 40.4799L40.4347 40.9999L34.1933 41.8132L28.06 42.8932L22.1467 44.1865L22.9347 42.9065L26.0933 37.5599L29.0693 32.1599L32.004 26.9999L33.4133 24.7065L34.8893 22.4932L36.4267 20.4266L38.0186 18.5065L39.672 16.7732L41.7067 14.9732C45.1053 11.9732 45.4173 6.77319 42.4067 3.37318C39.396 -0.0268173 34.1987 -0.333458 30.8027 2.66654L28.2773 4.91986L25.7573 7.53321L23.5027 10.2398L21.448 12.9865L19.564 15.7865L17.788 18.6398L14.672 24.0266L11.7373 29.2665L8.68399 34.2665L7.42799 36.2665L6.188 38.3599L5.07467 40.3865L4.06799 42.3865L3.17598 44.3466L2.34133 46.4398L1.19465 50.0266L0.479989 53.7865L0.325317 57.4665L0.735994 61.0799L1.76666 64.5466L3.29067 67.6132L5.16265 70.3199L7.30932 72.6799L9.57999 74.7199L11.928 76.5332L14.3627 78.2132L16.8333 79.7865Z" fill="#100F0D"/>
</svg>
