<svg width="650" height="211" viewBox="0 0 650 211" fill="none" xmlns="http://www.w3.org/2000/svg">
<path d="M17.1653 116.44L17.1693 116.467L17.144 116.413L17.1653 116.44ZM47.52 197.493L49.556 200.52L51.3293 203.107L52.8027 205.2L53.872 206.64C56.7507 210.467 62.1933 211.253 66.0293 208.373C69.8653 205.493 70.644 200.053 67.7667 196.213L66.864 195.013L65.584 193.213L63.9107 190.773L61.9373 187.853L59.6813 184.467L57.1947 180.693L51.6907 172.253L45.7107 162.96L39.5667 153.333L36.536 148.56L33.5773 143.853L30.9293 139.627L35.2907 141.293L45.4867 145.653L55.7613 150.2L66.1867 154.76L76.7333 159.013L82.248 161.04L87.78 162.88L93.3987 164.507L99.1213 165.947L104.98 167.107L110.941 167.973L117.02 168.547L123.253 168.733L129.592 168.507L136.047 167.893L142.655 166.8L149.403 165.213L159.069 162.293L168.536 158.787L177.725 154.827L186.701 150.493L195.487 145.813L204.084 140.907L212.54 135.827L220.877 130.64L229.112 125.4L237.277 120.2L245.388 115.093L253.476 110.133L261.555 105.4L269.635 100.96L277.84 96.8266L281.847 94.9599L285.931 93.1732L290.044 91.4933L294.176 89.9333L298.32 88.5066L302.504 87.2266L306.712 86.0666L310.944 85.0666L315.227 84.2266L319.549 83.5466L323.903 83.0266L328.327 82.6933L332.8 82.5333L337.323 82.56L341.933 82.7999L346.611 83.2266L351.352 83.8666L356.177 84.7466L360.432 85.7199L364.583 86.9466L368.709 88.4133L372.803 90.0933L376.843 91.9999L380.729 94.0533L388.849 98.9333L396.699 104.467L404.479 110.653L412.201 117.32L419.86 124.427L427.493 131.84L435.125 139.453L442.776 147.173L450.479 154.88L458.265 162.48L466.179 169.867L474.183 176.84L478.351 180.253L482.521 183.507L486.749 186.6L491.043 189.547L495.424 192.347L499.873 194.933L504.408 197.333L509.052 199.52L513.777 201.453L518.596 203.16L523.539 204.587L528.565 205.693L533.687 206.52L538.933 207.013L544.251 207.147L549.651 206.947L555.16 206.347L560.748 205.36L566.923 203.88L572.955 201.973L578.757 199.693L584.371 197.093L589.788 194.133L594.961 190.867L599.931 187.333L604.688 183.493L609.195 179.427L613.491 175.12L617.561 170.587L621.379 165.867L624.979 160.973L628.344 155.907L631.456 150.693L634.343 145.36L636.987 139.88L639.369 134.333L641.52 128.693L643.417 122.96L645.049 117.2L646.437 111.4L647.559 105.56L648.405 99.7199L648.997 93.8933L649.309 88.0533L649.332 82.28L649.084 76.56L648.537 70.88L647.685 65.2933L646.545 59.8133L645.077 54.4133L643.288 49.1866L641.187 44.0933L638.732 39.1466L635.936 34.4266L632.812 29.9066L629.307 25.5999L625.457 21.5999L621.276 17.8666L616.705 14.4399L611.805 11.3733L606.584 8.65327L600.995 6.2933L595.097 4.35997L588.899 2.81329L582.347 1.69331L575.76 1.02664C571.241 0.586639 567.217 3.89328 566.769 8.39995C566.324 12.92 569.625 16.9466 574.143 17.3999L580.16 17.9866L585.52 18.9066L590.544 20.1732L595.251 21.7066L599.589 23.5333L603.637 25.6533L607.404 28.0133L610.852 30.5999L614.043 33.4533L616.989 36.5066L619.653 39.7866L622.076 43.2933L624.271 46.9999L626.196 50.88L627.883 54.9866L629.34 59.2399L630.533 63.6399L631.483 68.2133L632.2 72.9066L632.66 77.6933L632.867 82.5999L632.847 87.5866L632.577 92.6133L632.056 97.6933L631.309 102.813L630.324 107.92L629.096 113.027L627.652 118.12L625.981 123.147L624.076 128.12L621.967 133.04L619.644 137.827L617.1 142.52L614.365 147.093L611.436 151.507L608.296 155.76L604.979 159.867L601.487 163.747L597.797 167.427L593.944 170.907L589.939 174.133L585.743 177.107L581.399 179.853L576.913 182.293L572.247 184.453L567.436 186.333L562.493 187.893L557.339 189.12L552.84 189.907L548.459 190.373L544.152 190.52L539.925 190.413L535.799 190.013L531.711 189.347L527.667 188.44L523.688 187.293L519.725 185.88L515.785 184.267L511.891 182.413L508.001 180.347L504.128 178.08L500.285 175.627L496.447 172.973L492.62 170.16L488.815 167.187L485.075 164.107L477.424 157.413L469.871 150.347L462.309 142.933L454.72 135.32L447.076 127.573L439.345 119.827L431.503 112.173L423.496 104.733L415.297 97.6266L406.875 90.9066L398.144 84.7333L389.241 79.3466L384.451 76.7999L379.68 74.5333L374.82 72.5333L369.859 70.7466L364.768 69.2399L359.612 68.0399L354.047 67.0266L348.559 66.2666L343.164 65.76L337.836 65.4799L332.564 65.4399L327.384 65.6133L322.271 65.9999L317.215 66.5866L312.247 67.3732L307.344 68.3199L302.496 69.4533L297.729 70.76L293.025 72.1999L288.372 73.7866L283.789 75.5066L279.259 77.3466L274.776 79.3066L270.277 81.3999L261.635 85.7333L253.064 90.4266L244.636 95.3599L236.305 100.44L228.052 105.627L219.853 110.84L211.687 116.013L203.529 121.093L195.352 126L187.141 130.68L178.888 135.067L170.54 139.093L162.107 142.733L153.572 145.88L144.811 148.52L139.247 149.827L133.807 150.72L128.467 151.24L123.22 151.413L118.081 151.253L112.984 150.773L107.929 150.04L102.928 149.04L97.9293 147.787L92.9373 146.333L87.9627 144.667L83.0493 142.867L72.908 138.773L62.756 134.333L52.4107 129.733L41.816 125.213L30.8667 121L25.5733 119.32L32.5387 116.2L41.5867 112.56L50.7427 108.893L55.4013 107.093L60.0494 105.32L64.576 103.613L68.9307 102L73.0373 100.493L76.8293 99.1199L78.584 98.4933L80.244 97.9066L81.788 97.3599L83.2227 96.8666L84.5213 96.4133L85.68 96.0133L86.6987 95.68L87.544 95.3999L88.2 95.1999L88.6387 95.0666L88.6973 95.0399L88.528 95.08C92.9933 94.2666 95.952 89.9866 95.1347 85.5199C94.316 81.0533 90.032 78.0932 85.5653 78.9066L84.916 79.0399L84.1267 79.2533L83.364 79.4799L82.516 79.7466L81.536 80.0666L80.4253 80.4399L79.1947 80.8533L77.8333 81.3199L76.3506 81.8399L74.7627 82.3866L73.0613 82.9999L71.256 83.6399L67.4147 85.0266L63.2467 86.5466L58.828 88.1732L54.2387 89.88L49.5173 91.6533L44.6933 93.4933L35.46 97.1466L26.1213 100.827L18.7613 104.04L11.5627 107.187L10.32 107.867L10.228 107.933L10.0453 108.053L9.77067 108.227L9.40534 108.467L8.94668 108.773L8.39733 109.133L7.75467 109.56L7.00933 110.053L6.33601 110.493L5.74266 110.893L5.22268 111.24L4.76133 111.573L4.32268 111.893L3.78534 112.307L2.45866 113.68L0.698669 119.213L0.700004 119.24V119.267L0.702673 119.28V119.293V119.307V119.32L1.08801 121.52L1.36801 122.373L1.81066 123.44L2.28 124.44L2.81867 125.507L3.42933 126.667L4.11333 127.933L4.88134 129.307L5.72533 130.8L6.63868 132.387L7.628 134.08L8.69066 135.893L10.9693 139.72L13.48 143.893L16.1814 148.32L19.0213 152.92L21.976 157.693L25.012 162.547L31.1453 172.267L37.1573 181.64L42.6853 190.16L45.22 194.027L47.52 197.493Z" fill="#100F0D"/>
</svg>
