<svg width="765" height="194" viewBox="0 0 765 194" fill="none" xmlns="http://www.w3.org/2000/svg">
<path d="M762.413 62.9733L760.681 58.5733L758.393 54.4533L755.685 50.68L752.643 47.2L749.271 43.96L745.488 40.84L737.944 35.6266L729.629 30.9866L721.208 27.04L716.869 25.2L712.676 23.5333L708.588 22L704.628 20.5867L700.836 19.2933L697.167 18.08L690.648 16.12L684.021 14.1333L677.204 12.4133L670.399 10.6933L663.443 9.25331L656.507 7.81334L649.461 6.61334L642.409 5.41335L635.269 4.46666L628.135 3.51999L620.948 2.82666L613.779 2.13333L606.592 1.66666L599.396 1.2L592.209 0.959991L585.028 0.719986H577.892L570.771 0.706665L563.72 0.906662L556.659 1.10667L549.709 1.51999L542.76 1.94667L535.955 2.57333L529.237 3.18665L526.755 3.46666L523.796 3.84L520.34 4.30667L516.479 4.82666L512.223 5.44L507.632 6.10667L497.819 7.58665L487.412 9.25331L476.997 11L471.888 11.8933L466.965 12.8L462.28 13.6933L457.86 14.5733L453.78 15.44L450.147 16.28L448.416 16.7067L446.829 17.12L445.36 17.5333L443.983 17.9467L442.683 18.3866L441.455 18.8533L440.207 19.4133L438.76 20.2533L437.737 21.0533L435.929 23.1866H435.928L435.923 23.2L435.916 23.2133L435.905 23.2267L435.895 23.2533L435.879 23.28L435.863 23.3067L435.701 23.5867L435.412 24.1733L435.148 24.84L434.927 25.5733L434.763 26.3733L434.675 27.2267V28.1067L434.768 28.9866L434.851 29.44L434.856 29.4667L434.86 29.4933L434.865 29.5067L434.868 29.52L434.871 29.5333L434.873 29.5467L437.645 34.16L437.911 34.3866C441.317 37.2267 446.319 36.8 449.264 33.5333L449.947 33.32L451.116 33L452.453 32.64L453.911 32.28L457.327 31.5067L461.175 30.68L465.428 29.84L469.977 28.9733L474.785 28.0933L479.765 27.2133L490.068 25.48L500.344 23.8533L510.067 22.3733L514.568 21.72L518.756 21.1333L522.541 20.6133L525.903 20.16L528.723 19.8133L530.844 19.5733L537.469 18.96L544.005 18.3467L550.693 17.9467L557.38 17.5467L564.18 17.36L570.992 17.1733L577.875 17.1866H584.747L591.667 17.4133L598.58 17.6533L605.507 18.1067L612.441 18.5733L619.359 19.24L626.256 19.9067L633.1 20.8267L639.939 21.7333L646.685 22.88L653.439 24.04L660.081 25.4267L666.7 26.8L673.164 28.44L679.617 30.0667L685.877 31.9467L692.248 33.88L695.568 34.9733L699.168 36.2L702.903 37.5467L706.721 38.9733L710.585 40.5067L714.364 42.1067L722.072 45.72L729.193 49.6933L735.679 54.2L738.252 56.3333L740.649 58.64L742.699 61L744.4 63.3467L745.685 65.6533L746.607 68.0133L747.199 70.3733L747.416 72.7866L747.201 75.72L746.997 76.8533L746.639 78.32L746.137 79.88L745.501 81.52L744.715 83.2133L743.775 84.9733L741.839 88.1866L739.76 91.24L737.491 94.2133L735.059 97.0933L732.468 99.88L729.695 102.587L726.773 105.227L723.704 107.76L720.472 110.213L717.105 112.6L713.608 114.893L709.965 117.107L706.207 119.24L702.337 121.293L698.345 123.267L694.256 125.16L690.076 126.987L685.872 128.693L677.012 132L667.963 134.987L658.688 137.68L649.271 140.147L639.763 142.347L630.212 144.32L620.677 146.093L611.228 147.653L601.911 149.04L592.771 150.28L583.888 151.36L575.311 152.307L567.067 153.16L559.244 153.907L551.933 154.587L540.985 155.507L530.059 156.24L519.111 156.827L508.151 157.267L497.177 157.56L486.211 157.707L475.173 157.667L464.163 157.627L453.135 157.333L442.096 157.04L431.043 156.52L419.973 156L408.891 155.293L397.807 154.573L386.712 153.68L375.607 152.787L364.493 151.733L353.365 150.68L342.232 149.507L331.095 148.32L319.952 147.027L308.799 145.733L297.643 144.36L286.484 142.987L275.325 141.533L264.136 140.067L252.947 138.613L241.773 137.16L230.605 135.667L219.421 134.173L208.237 132.667L197.031 131.173L185.839 129.747L174.672 128.32L163.504 126.893L152.3 125.453L141.111 124.12L129.919 122.787L118.741 121.56L107.556 120.32L96.3827 119.213L85.2066 118.107L74.0493 117.147L62.8746 116.173L51.7213 115.387L40.556 114.587L37.4013 114.427L41.456 111.867L50.436 106.733L59.7626 102L69.3306 97.2133L76.1493 93.6133L82.8133 89.8933L89.352 86.1467L95.812 82.4L102.232 78.7067L108.731 75.08C112.697 72.8667 114.12 67.8533 111.908 63.8933C109.696 59.92 104.691 58.5066 100.723 60.72L94.1266 64.3866L87.5866 68.1467L81.132 71.88L74.7173 75.5467L68.3053 79.0933L61.832 82.48L52.3373 87.1866L42.5973 92.08L33.0293 97.4533L28.3253 100.36L24.1493 103.107L20.3733 105.773L16.9333 108.373L13.8373 110.933L11.0946 113.453L8.64399 115.96L6.49063 118.52L4.66798 121.093L3.13865 123.773L1.93998 126.6L1.1613 129.507L0.807983 132.48L0.949325 135.533L1.56531 138.413L2.57065 141.08L3.93064 143.56L5.51332 145.76L7.26664 147.733L9.19464 149.56L11.2306 151.227L13.3666 152.8L15.6253 154.28L18.072 155.747L22.888 158.387L28.14 160.973L33.6106 163.533L39.208 166.067L44.8653 168.653L50.4827 171.32L55.9613 174.08L61.1827 176.973L66.0573 180.013L70.508 183.187L74.3786 186.48L77.98 190.32C81.272 193.8 86.768 193.96 90.2533 190.667C93.7413 187.373 93.8973 181.88 90.6053 178.4L86.3186 173.88L81.1613 169.493L75.668 165.587L69.9453 162.027L64.0346 158.773L58.076 155.773L52.1493 152.973L46.3453 150.333L40.78 147.84L35.5373 145.427L30.7653 143.107L26.4653 140.787L24.7186 139.747L23.0853 138.693L21.6573 137.653L20.4467 136.68L19.5066 135.813L18.7933 135.027L18.3 134.36L18.036 133.907L17.896 133.56L17.8253 133.293L17.808 133.107L17.852 132.72L17.9986 132.133L18.3293 131.333L18.62 130.813L28.496 131.333L39.4827 131.92L50.4933 132.693L61.5133 133.48L72.5546 134.427L83.6093 135.387L94.68 136.467L105.756 137.56L116.845 138.787L127.947 140L139.061 141.32L150.179 142.64L161.309 144.067L172.477 145.493L183.647 146.907L194.789 148.333L205.949 149.827L217.133 151.307L228.315 152.8L239.512 154.293L250.716 155.747L261.905 157.213L273.096 158.667L284.315 160.12L295.533 161.493L306.756 162.867L317.975 164.16L329.205 165.453L340.431 166.627L351.657 167.8L362.88 168.853L374.116 169.907L385.341 170.8L396.579 171.693L407.803 172.4L419.029 173.107L430.245 173.627L441.475 174.133L452.692 174.427L463.916 174.707L475.125 174.733L486.307 174.747L497.531 174.587L508.732 174.267L519.92 173.8L531.101 173.187L542.281 172.413L553.416 171.467L560.844 170.773L568.757 170L577.123 169.12L585.855 168.147L594.936 167.027L604.293 165.747L613.86 164.307L623.609 162.667L633.464 160.827L643.375 158.76L653.303 156.453L663.168 153.853L672.941 150.987L682.571 147.813L691.889 144.32L696.577 142.4L701.125 140.413L705.584 138.333L709.963 136.16L714.257 133.88L718.44 131.493L722.524 129L726.503 126.387L730.348 123.653L734.072 120.813L737.669 117.84L741.104 114.733L744.396 111.507L747.533 108.12L750.48 104.613L753.255 100.973L755.844 97.16L758.181 93.2666L759.593 90.6266L760.796 88.0133L761.799 85.4133L762.623 82.8266L763.257 80.2266L763.723 77.3866L764.013 72.6133L763.564 67.64L762.413 62.9733Z" fill="#100F0D"/>
</svg>
